<mxfile host="Electron" modified="2023-12-11T19:34:50.509Z" agent="Mozilla/5.0 (Windows NT 10.0; Win64; x64) AppleWebKit/537.36 (KHTML, like Gecko) draw.io/22.1.2 Chrome/114.0.5735.289 Electron/25.9.4 Safari/537.36" etag="lMe7wvfieSua5MZxnbO8" version="22.1.2" type="device" pages="2">
  <diagram id="R2lEEEUBdFMjLlhIrx00" name="Projeto Final">
    <mxGraphModel dx="4332" dy="2512" grid="1" gridSize="10" guides="1" tooltips="1" connect="1" arrows="1" fold="1" page="0" pageScale="1" pageWidth="1169" pageHeight="827" background="none" math="0" shadow="1" extFonts="Permanent Marker^https://fonts.googleapis.com/css?family=Permanent+Marker">
      <root>
        <mxCell id="0" />
        <mxCell id="1" parent="0" />
        <mxCell id="mNH1ytMq66VUiCfq0EZo-108" value="" style="rounded=1;whiteSpace=wrap;html=1;glass=0;shadow=1;strokeColor=#6c8ebf;fillColor=#dae8fc;" parent="1" vertex="1">
          <mxGeometry x="-990" y="-630" width="1300" height="440" as="geometry" />
        </mxCell>
        <mxCell id="mNH1ytMq66VUiCfq0EZo-107" value="" style="rounded=1;whiteSpace=wrap;html=1;shadow=1;fillColor=#dae8fc;strokeColor=#6c8ebf;" parent="1" vertex="1">
          <mxGeometry x="-30" y="-1160" width="1300" height="460" as="geometry" />
        </mxCell>
        <mxCell id="mNH1ytMq66VUiCfq0EZo-106" value="" style="rounded=1;whiteSpace=wrap;html=1;strokeColor=#6c8ebf;shadow=1;fillColor=#dae8fc;" parent="1" vertex="1">
          <mxGeometry x="910" y="-620" width="420" height="280" as="geometry" />
        </mxCell>
        <mxCell id="mNH1ytMq66VUiCfq0EZo-105" value="" style="rounded=1;whiteSpace=wrap;html=1;strokeColor=#6c8ebf;shadow=1;fillColor=#dae8fc;" parent="1" vertex="1">
          <mxGeometry x="410" y="-620" width="420" height="770" as="geometry" />
        </mxCell>
        <mxCell id="C-vyLk0tnHw3VtMMgP7b-23" value="Paciente" style="shape=table;startSize=30;container=1;collapsible=1;childLayout=tableLayout;fixedRows=1;rowLines=0;fontStyle=1;align=center;resizeLast=1;gradientColor=#CCE5FF;swimlaneFillColor=default;gradientDirection=south;rounded=1;shadow=1;" parent="1" vertex="1">
          <mxGeometry x="-80" y="-600" width="360" height="120" as="geometry" />
        </mxCell>
        <mxCell id="C-vyLk0tnHw3VtMMgP7b-24" value="" style="shape=partialRectangle;collapsible=0;dropTarget=0;pointerEvents=0;fillColor=none;points=[[0,0.5],[1,0.5]];portConstraint=eastwest;top=0;left=0;right=0;bottom=1;" parent="C-vyLk0tnHw3VtMMgP7b-23" vertex="1">
          <mxGeometry y="30" width="360" height="30" as="geometry" />
        </mxCell>
        <mxCell id="C-vyLk0tnHw3VtMMgP7b-25" value="PK" style="shape=partialRectangle;overflow=hidden;connectable=0;fillColor=none;top=0;left=0;bottom=0;right=0;fontStyle=1;" parent="C-vyLk0tnHw3VtMMgP7b-24" vertex="1">
          <mxGeometry width="30" height="30" as="geometry">
            <mxRectangle width="30" height="30" as="alternateBounds" />
          </mxGeometry>
        </mxCell>
        <mxCell id="C-vyLk0tnHw3VtMMgP7b-26" value="id" style="shape=partialRectangle;overflow=hidden;connectable=0;fillColor=none;top=0;left=0;bottom=0;right=0;align=left;spacingLeft=6;fontStyle=5;" parent="C-vyLk0tnHw3VtMMgP7b-24" vertex="1">
          <mxGeometry x="30" width="100" height="30" as="geometry">
            <mxRectangle width="100" height="30" as="alternateBounds" />
          </mxGeometry>
        </mxCell>
        <mxCell id="h82VSDBW97GAlDBscp8d-2" value="INTEGER PRIMARY KEY IDENTITY" style="shape=partialRectangle;overflow=hidden;connectable=0;fillColor=none;top=0;left=0;bottom=0;right=0;align=left;spacingLeft=6;fontStyle=5;" parent="C-vyLk0tnHw3VtMMgP7b-24" vertex="1">
          <mxGeometry x="130" width="230" height="30" as="geometry">
            <mxRectangle width="230" height="30" as="alternateBounds" />
          </mxGeometry>
        </mxCell>
        <mxCell id="ZPM3V8VGhVody_l9zxSt-27" value="" style="shape=partialRectangle;collapsible=0;dropTarget=0;pointerEvents=0;fillColor=none;points=[[0,0.5],[1,0.5]];portConstraint=eastwest;top=0;left=0;right=0;bottom=0;" parent="C-vyLk0tnHw3VtMMgP7b-23" vertex="1">
          <mxGeometry y="60" width="360" height="30" as="geometry" />
        </mxCell>
        <mxCell id="ZPM3V8VGhVody_l9zxSt-28" value="" style="shape=partialRectangle;overflow=hidden;connectable=0;fillColor=none;top=0;left=0;bottom=0;right=0;" parent="ZPM3V8VGhVody_l9zxSt-27" vertex="1">
          <mxGeometry width="30" height="30" as="geometry">
            <mxRectangle width="30" height="30" as="alternateBounds" />
          </mxGeometry>
        </mxCell>
        <mxCell id="ZPM3V8VGhVody_l9zxSt-29" value="observacao" style="shape=partialRectangle;overflow=hidden;connectable=0;fillColor=none;top=0;left=0;bottom=0;right=0;align=left;spacingLeft=6;" parent="ZPM3V8VGhVody_l9zxSt-27" vertex="1">
          <mxGeometry x="30" width="100" height="30" as="geometry">
            <mxRectangle width="100" height="30" as="alternateBounds" />
          </mxGeometry>
        </mxCell>
        <mxCell id="ZPM3V8VGhVody_l9zxSt-30" value="TEXT" style="shape=partialRectangle;overflow=hidden;connectable=0;fillColor=none;top=0;left=0;bottom=0;right=0;align=left;spacingLeft=6;" parent="ZPM3V8VGhVody_l9zxSt-27" vertex="1">
          <mxGeometry x="130" width="230" height="30" as="geometry">
            <mxRectangle width="230" height="30" as="alternateBounds" />
          </mxGeometry>
        </mxCell>
        <mxCell id="C-vyLk0tnHw3VtMMgP7b-27" value="" style="shape=partialRectangle;collapsible=0;dropTarget=0;pointerEvents=0;fillColor=none;points=[[0,0.5],[1,0.5]];portConstraint=eastwest;top=0;left=0;right=0;bottom=0;" parent="C-vyLk0tnHw3VtMMgP7b-23" vertex="1">
          <mxGeometry y="90" width="360" height="30" as="geometry" />
        </mxCell>
        <mxCell id="C-vyLk0tnHw3VtMMgP7b-28" value="FK" style="shape=partialRectangle;overflow=hidden;connectable=0;fillColor=none;top=0;left=0;bottom=0;right=0;" parent="C-vyLk0tnHw3VtMMgP7b-27" vertex="1">
          <mxGeometry width="30" height="30" as="geometry">
            <mxRectangle width="30" height="30" as="alternateBounds" />
          </mxGeometry>
        </mxCell>
        <mxCell id="C-vyLk0tnHw3VtMMgP7b-29" value="pessoa" style="shape=partialRectangle;overflow=hidden;connectable=0;fillColor=none;top=0;left=0;bottom=0;right=0;align=left;spacingLeft=6;" parent="C-vyLk0tnHw3VtMMgP7b-27" vertex="1">
          <mxGeometry x="30" width="100" height="30" as="geometry">
            <mxRectangle width="100" height="30" as="alternateBounds" />
          </mxGeometry>
        </mxCell>
        <mxCell id="h82VSDBW97GAlDBscp8d-3" value="INTEGER NOT NULL" style="shape=partialRectangle;overflow=hidden;connectable=0;fillColor=none;top=0;left=0;bottom=0;right=0;align=left;spacingLeft=6;" parent="C-vyLk0tnHw3VtMMgP7b-27" vertex="1">
          <mxGeometry x="130" width="230" height="30" as="geometry">
            <mxRectangle width="230" height="30" as="alternateBounds" />
          </mxGeometry>
        </mxCell>
        <mxCell id="h82VSDBW97GAlDBscp8d-12" value="Telefone" style="shape=table;startSize=30;container=1;collapsible=1;childLayout=tableLayout;fixedRows=1;rowLines=0;fontStyle=1;align=center;resizeLast=1;gradientColor=#CCE5FF;swimlaneFillColor=default;gradientDirection=south;rounded=1;shadow=1;" parent="1" vertex="1">
          <mxGeometry x="880" y="-1140" width="360" height="180" as="geometry" />
        </mxCell>
        <mxCell id="h82VSDBW97GAlDBscp8d-13" value="" style="shape=partialRectangle;collapsible=0;dropTarget=0;pointerEvents=0;fillColor=none;points=[[0,0.5],[1,0.5]];portConstraint=eastwest;top=0;left=0;right=0;bottom=1;" parent="h82VSDBW97GAlDBscp8d-12" vertex="1">
          <mxGeometry y="30" width="360" height="30" as="geometry" />
        </mxCell>
        <mxCell id="h82VSDBW97GAlDBscp8d-14" value="PK" style="shape=partialRectangle;overflow=hidden;connectable=0;fillColor=none;top=0;left=0;bottom=0;right=0;fontStyle=1;" parent="h82VSDBW97GAlDBscp8d-13" vertex="1">
          <mxGeometry width="30" height="30" as="geometry">
            <mxRectangle width="30" height="30" as="alternateBounds" />
          </mxGeometry>
        </mxCell>
        <mxCell id="h82VSDBW97GAlDBscp8d-15" value="id" style="shape=partialRectangle;overflow=hidden;connectable=0;fillColor=none;top=0;left=0;bottom=0;right=0;align=left;spacingLeft=6;fontStyle=5;" parent="h82VSDBW97GAlDBscp8d-13" vertex="1">
          <mxGeometry x="30" width="100" height="30" as="geometry">
            <mxRectangle width="100" height="30" as="alternateBounds" />
          </mxGeometry>
        </mxCell>
        <mxCell id="h82VSDBW97GAlDBscp8d-16" value="INTEGER PRIMARY KEY IDENTITY" style="shape=partialRectangle;overflow=hidden;connectable=0;fillColor=none;top=0;left=0;bottom=0;right=0;align=left;spacingLeft=6;fontStyle=5;" parent="h82VSDBW97GAlDBscp8d-13" vertex="1">
          <mxGeometry x="130" width="230" height="30" as="geometry">
            <mxRectangle width="230" height="30" as="alternateBounds" />
          </mxGeometry>
        </mxCell>
        <mxCell id="h82VSDBW97GAlDBscp8d-17" value="" style="shape=partialRectangle;collapsible=0;dropTarget=0;pointerEvents=0;fillColor=none;points=[[0,0.5],[1,0.5]];portConstraint=eastwest;top=0;left=0;right=0;bottom=0;" parent="h82VSDBW97GAlDBscp8d-12" vertex="1">
          <mxGeometry y="60" width="360" height="30" as="geometry" />
        </mxCell>
        <mxCell id="h82VSDBW97GAlDBscp8d-18" value="" style="shape=partialRectangle;overflow=hidden;connectable=0;fillColor=none;top=0;left=0;bottom=0;right=0;" parent="h82VSDBW97GAlDBscp8d-17" vertex="1">
          <mxGeometry width="30" height="30" as="geometry">
            <mxRectangle width="30" height="30" as="alternateBounds" />
          </mxGeometry>
        </mxCell>
        <mxCell id="h82VSDBW97GAlDBscp8d-19" value="nome_contato" style="shape=partialRectangle;overflow=hidden;connectable=0;fillColor=none;top=0;left=0;bottom=0;right=0;align=left;spacingLeft=6;" parent="h82VSDBW97GAlDBscp8d-17" vertex="1">
          <mxGeometry x="30" width="100" height="30" as="geometry">
            <mxRectangle width="100" height="30" as="alternateBounds" />
          </mxGeometry>
        </mxCell>
        <mxCell id="h82VSDBW97GAlDBscp8d-20" value="VARCHAR(50) NOT NULL" style="shape=partialRectangle;overflow=hidden;connectable=0;fillColor=none;top=0;left=0;bottom=0;right=0;align=left;spacingLeft=6;" parent="h82VSDBW97GAlDBscp8d-17" vertex="1">
          <mxGeometry x="130" width="230" height="30" as="geometry">
            <mxRectangle width="230" height="30" as="alternateBounds" />
          </mxGeometry>
        </mxCell>
        <mxCell id="h82VSDBW97GAlDBscp8d-21" value="" style="shape=partialRectangle;collapsible=0;dropTarget=0;pointerEvents=0;fillColor=none;points=[[0,0.5],[1,0.5]];portConstraint=eastwest;top=0;left=0;right=0;bottom=0;" parent="h82VSDBW97GAlDBscp8d-12" vertex="1">
          <mxGeometry y="90" width="360" height="30" as="geometry" />
        </mxCell>
        <mxCell id="h82VSDBW97GAlDBscp8d-22" value="" style="shape=partialRectangle;overflow=hidden;connectable=0;fillColor=none;top=0;left=0;bottom=0;right=0;" parent="h82VSDBW97GAlDBscp8d-21" vertex="1">
          <mxGeometry width="30" height="30" as="geometry">
            <mxRectangle width="30" height="30" as="alternateBounds" />
          </mxGeometry>
        </mxCell>
        <mxCell id="h82VSDBW97GAlDBscp8d-23" value="relacao" style="shape=partialRectangle;overflow=hidden;connectable=0;fillColor=none;top=0;left=0;bottom=0;right=0;align=left;spacingLeft=6;" parent="h82VSDBW97GAlDBscp8d-21" vertex="1">
          <mxGeometry x="30" width="100" height="30" as="geometry">
            <mxRectangle width="100" height="30" as="alternateBounds" />
          </mxGeometry>
        </mxCell>
        <mxCell id="h82VSDBW97GAlDBscp8d-24" value="VARCHAR(50) NOT NULL" style="shape=partialRectangle;overflow=hidden;connectable=0;fillColor=none;top=0;left=0;bottom=0;right=0;align=left;spacingLeft=6;" parent="h82VSDBW97GAlDBscp8d-21" vertex="1">
          <mxGeometry x="130" width="230" height="30" as="geometry">
            <mxRectangle width="230" height="30" as="alternateBounds" />
          </mxGeometry>
        </mxCell>
        <mxCell id="h82VSDBW97GAlDBscp8d-29" value="" style="shape=partialRectangle;collapsible=0;dropTarget=0;pointerEvents=0;fillColor=none;points=[[0,0.5],[1,0.5]];portConstraint=eastwest;top=0;left=0;right=0;bottom=0;" parent="h82VSDBW97GAlDBscp8d-12" vertex="1">
          <mxGeometry y="120" width="360" height="30" as="geometry" />
        </mxCell>
        <mxCell id="h82VSDBW97GAlDBscp8d-30" value="" style="shape=partialRectangle;overflow=hidden;connectable=0;fillColor=none;top=0;left=0;bottom=0;right=0;" parent="h82VSDBW97GAlDBscp8d-29" vertex="1">
          <mxGeometry width="30" height="30" as="geometry">
            <mxRectangle width="30" height="30" as="alternateBounds" />
          </mxGeometry>
        </mxCell>
        <mxCell id="h82VSDBW97GAlDBscp8d-31" value="Emergencia" style="shape=partialRectangle;overflow=hidden;connectable=0;fillColor=none;top=0;left=0;bottom=0;right=0;align=left;spacingLeft=6;" parent="h82VSDBW97GAlDBscp8d-29" vertex="1">
          <mxGeometry x="30" width="100" height="30" as="geometry">
            <mxRectangle width="100" height="30" as="alternateBounds" />
          </mxGeometry>
        </mxCell>
        <mxCell id="h82VSDBW97GAlDBscp8d-32" value="BOOL NOT NULL" style="shape=partialRectangle;overflow=hidden;connectable=0;fillColor=none;top=0;left=0;bottom=0;right=0;align=left;spacingLeft=6;" parent="h82VSDBW97GAlDBscp8d-29" vertex="1">
          <mxGeometry x="130" width="230" height="30" as="geometry">
            <mxRectangle width="230" height="30" as="alternateBounds" />
          </mxGeometry>
        </mxCell>
        <mxCell id="h82VSDBW97GAlDBscp8d-25" value="" style="shape=partialRectangle;collapsible=0;dropTarget=0;pointerEvents=0;fillColor=none;points=[[0,0.5],[1,0.5]];portConstraint=eastwest;top=0;left=0;right=0;bottom=0;" parent="h82VSDBW97GAlDBscp8d-12" vertex="1">
          <mxGeometry y="150" width="360" height="30" as="geometry" />
        </mxCell>
        <mxCell id="h82VSDBW97GAlDBscp8d-26" value="FK" style="shape=partialRectangle;overflow=hidden;connectable=0;fillColor=none;top=0;left=0;bottom=0;right=0;" parent="h82VSDBW97GAlDBscp8d-25" vertex="1">
          <mxGeometry width="30" height="30" as="geometry">
            <mxRectangle width="30" height="30" as="alternateBounds" />
          </mxGeometry>
        </mxCell>
        <mxCell id="h82VSDBW97GAlDBscp8d-27" value="paciente_id" style="shape=partialRectangle;overflow=hidden;connectable=0;fillColor=none;top=0;left=0;bottom=0;right=0;align=left;spacingLeft=6;" parent="h82VSDBW97GAlDBscp8d-25" vertex="1">
          <mxGeometry x="30" width="100" height="30" as="geometry">
            <mxRectangle width="100" height="30" as="alternateBounds" />
          </mxGeometry>
        </mxCell>
        <mxCell id="h82VSDBW97GAlDBscp8d-28" value="INTEGER NOT NULL" style="shape=partialRectangle;overflow=hidden;connectable=0;fillColor=none;top=0;left=0;bottom=0;right=0;align=left;spacingLeft=6;" parent="h82VSDBW97GAlDBscp8d-25" vertex="1">
          <mxGeometry x="130" width="230" height="30" as="geometry">
            <mxRectangle width="230" height="30" as="alternateBounds" />
          </mxGeometry>
        </mxCell>
        <mxCell id="h82VSDBW97GAlDBscp8d-33" style="edgeStyle=orthogonalEdgeStyle;rounded=0;orthogonalLoop=1;jettySize=auto;html=1;endArrow=ERone;endFill=0;startArrow=ERzeroToMany;startFill=0;" parent="1" source="h82VSDBW97GAlDBscp8d-25" target="mNH1ytMq66VUiCfq0EZo-44" edge="1">
          <mxGeometry relative="1" as="geometry">
            <Array as="points">
              <mxPoint x="840" y="-975" />
              <mxPoint x="840" y="-945" />
            </Array>
          </mxGeometry>
        </mxCell>
        <mxCell id="h82VSDBW97GAlDBscp8d-46" value="Alergia_Pacientes" style="shape=table;startSize=30;container=1;collapsible=1;childLayout=tableLayout;fixedRows=1;rowLines=0;fontStyle=1;align=center;resizeLast=1;gradientColor=#CCE5FF;swimlaneFillColor=default;gradientDirection=south;rounded=1;shadow=1;" parent="1" vertex="1">
          <mxGeometry x="-520" y="-600" width="360" height="150" as="geometry" />
        </mxCell>
        <mxCell id="h82VSDBW97GAlDBscp8d-47" value="" style="shape=partialRectangle;collapsible=0;dropTarget=0;pointerEvents=0;fillColor=none;points=[[0,0.5],[1,0.5]];portConstraint=eastwest;top=0;left=0;right=0;bottom=1;" parent="h82VSDBW97GAlDBscp8d-46" vertex="1">
          <mxGeometry y="30" width="360" height="30" as="geometry" />
        </mxCell>
        <mxCell id="h82VSDBW97GAlDBscp8d-48" value="PK" style="shape=partialRectangle;overflow=hidden;connectable=0;fillColor=none;top=0;left=0;bottom=0;right=0;fontStyle=1;" parent="h82VSDBW97GAlDBscp8d-47" vertex="1">
          <mxGeometry width="30" height="30" as="geometry">
            <mxRectangle width="30" height="30" as="alternateBounds" />
          </mxGeometry>
        </mxCell>
        <mxCell id="h82VSDBW97GAlDBscp8d-49" value="id" style="shape=partialRectangle;overflow=hidden;connectable=0;fillColor=none;top=0;left=0;bottom=0;right=0;align=left;spacingLeft=6;fontStyle=5;" parent="h82VSDBW97GAlDBscp8d-47" vertex="1">
          <mxGeometry x="30" width="100" height="30" as="geometry">
            <mxRectangle width="100" height="30" as="alternateBounds" />
          </mxGeometry>
        </mxCell>
        <mxCell id="h82VSDBW97GAlDBscp8d-50" value="INTEGER PRIMARY KEY IDENTITY" style="shape=partialRectangle;overflow=hidden;connectable=0;fillColor=none;top=0;left=0;bottom=0;right=0;align=left;spacingLeft=6;fontStyle=5;" parent="h82VSDBW97GAlDBscp8d-47" vertex="1">
          <mxGeometry x="130" width="230" height="30" as="geometry">
            <mxRectangle width="230" height="30" as="alternateBounds" />
          </mxGeometry>
        </mxCell>
        <mxCell id="h82VSDBW97GAlDBscp8d-51" value="" style="shape=partialRectangle;collapsible=0;dropTarget=0;pointerEvents=0;fillColor=none;points=[[0,0.5],[1,0.5]];portConstraint=eastwest;top=0;left=0;right=0;bottom=0;" parent="h82VSDBW97GAlDBscp8d-46" vertex="1">
          <mxGeometry y="60" width="360" height="30" as="geometry" />
        </mxCell>
        <mxCell id="h82VSDBW97GAlDBscp8d-52" value="FK" style="shape=partialRectangle;overflow=hidden;connectable=0;fillColor=none;top=0;left=0;bottom=0;right=0;" parent="h82VSDBW97GAlDBscp8d-51" vertex="1">
          <mxGeometry width="30" height="30" as="geometry">
            <mxRectangle width="30" height="30" as="alternateBounds" />
          </mxGeometry>
        </mxCell>
        <mxCell id="h82VSDBW97GAlDBscp8d-53" value="alergia" style="shape=partialRectangle;overflow=hidden;connectable=0;fillColor=none;top=0;left=0;bottom=0;right=0;align=left;spacingLeft=6;" parent="h82VSDBW97GAlDBscp8d-51" vertex="1">
          <mxGeometry x="30" width="100" height="30" as="geometry">
            <mxRectangle width="100" height="30" as="alternateBounds" />
          </mxGeometry>
        </mxCell>
        <mxCell id="h82VSDBW97GAlDBscp8d-54" value="VARCHAR(50) NOT NULL" style="shape=partialRectangle;overflow=hidden;connectable=0;fillColor=none;top=0;left=0;bottom=0;right=0;align=left;spacingLeft=6;" parent="h82VSDBW97GAlDBscp8d-51" vertex="1">
          <mxGeometry x="130" width="230" height="30" as="geometry">
            <mxRectangle width="230" height="30" as="alternateBounds" />
          </mxGeometry>
        </mxCell>
        <mxCell id="h82VSDBW97GAlDBscp8d-169" value="" style="shape=partialRectangle;collapsible=0;dropTarget=0;pointerEvents=0;fillColor=none;points=[[0,0.5],[1,0.5]];portConstraint=eastwest;top=0;left=0;right=0;bottom=0;" parent="h82VSDBW97GAlDBscp8d-46" vertex="1">
          <mxGeometry y="90" width="360" height="30" as="geometry" />
        </mxCell>
        <mxCell id="h82VSDBW97GAlDBscp8d-170" value="FK" style="shape=partialRectangle;overflow=hidden;connectable=0;fillColor=none;top=0;left=0;bottom=0;right=0;" parent="h82VSDBW97GAlDBscp8d-169" vertex="1">
          <mxGeometry width="30" height="30" as="geometry">
            <mxRectangle width="30" height="30" as="alternateBounds" />
          </mxGeometry>
        </mxCell>
        <mxCell id="h82VSDBW97GAlDBscp8d-171" value="paciente_id" style="shape=partialRectangle;overflow=hidden;connectable=0;fillColor=none;top=0;left=0;bottom=0;right=0;align=left;spacingLeft=6;" parent="h82VSDBW97GAlDBscp8d-169" vertex="1">
          <mxGeometry x="30" width="100" height="30" as="geometry">
            <mxRectangle width="100" height="30" as="alternateBounds" />
          </mxGeometry>
        </mxCell>
        <mxCell id="h82VSDBW97GAlDBscp8d-172" value="INTEGER NOT NULL" style="shape=partialRectangle;overflow=hidden;connectable=0;fillColor=none;top=0;left=0;bottom=0;right=0;align=left;spacingLeft=6;" parent="h82VSDBW97GAlDBscp8d-169" vertex="1">
          <mxGeometry x="130" width="230" height="30" as="geometry">
            <mxRectangle width="230" height="30" as="alternateBounds" />
          </mxGeometry>
        </mxCell>
        <mxCell id="h82VSDBW97GAlDBscp8d-63" value="" style="shape=partialRectangle;collapsible=0;dropTarget=0;pointerEvents=0;fillColor=none;points=[[0,0.5],[1,0.5]];portConstraint=eastwest;top=0;left=0;right=0;bottom=0;" parent="h82VSDBW97GAlDBscp8d-46" vertex="1">
          <mxGeometry y="120" width="360" height="30" as="geometry" />
        </mxCell>
        <mxCell id="h82VSDBW97GAlDBscp8d-64" value="FK" style="shape=partialRectangle;overflow=hidden;connectable=0;fillColor=none;top=0;left=0;bottom=0;right=0;" parent="h82VSDBW97GAlDBscp8d-63" vertex="1">
          <mxGeometry width="30" height="30" as="geometry">
            <mxRectangle width="30" height="30" as="alternateBounds" />
          </mxGeometry>
        </mxCell>
        <mxCell id="h82VSDBW97GAlDBscp8d-65" value="exame_id" style="shape=partialRectangle;overflow=hidden;connectable=0;fillColor=none;top=0;left=0;bottom=0;right=0;align=left;spacingLeft=6;" parent="h82VSDBW97GAlDBscp8d-63" vertex="1">
          <mxGeometry x="30" width="100" height="30" as="geometry">
            <mxRectangle width="100" height="30" as="alternateBounds" />
          </mxGeometry>
        </mxCell>
        <mxCell id="h82VSDBW97GAlDBscp8d-66" value="INTEGER NULL" style="shape=partialRectangle;overflow=hidden;connectable=0;fillColor=none;top=0;left=0;bottom=0;right=0;align=left;spacingLeft=6;" parent="h82VSDBW97GAlDBscp8d-63" vertex="1">
          <mxGeometry x="130" width="230" height="30" as="geometry">
            <mxRectangle width="230" height="30" as="alternateBounds" />
          </mxGeometry>
        </mxCell>
        <mxCell id="h82VSDBW97GAlDBscp8d-67" style="edgeStyle=orthogonalEdgeStyle;rounded=0;orthogonalLoop=1;jettySize=auto;html=1;endArrow=ERone;endFill=0;startArrow=ERzeroToMany;startFill=0;" parent="1" source="h82VSDBW97GAlDBscp8d-169" target="C-vyLk0tnHw3VtMMgP7b-24" edge="1">
          <mxGeometry relative="1" as="geometry">
            <Array as="points">
              <mxPoint x="-140" y="-495" />
              <mxPoint x="-140" y="-555" />
            </Array>
          </mxGeometry>
        </mxCell>
        <mxCell id="h82VSDBW97GAlDBscp8d-72" value="Consulta" style="shape=table;startSize=30;container=1;collapsible=1;childLayout=tableLayout;fixedRows=1;rowLines=0;fontStyle=1;align=center;resizeLast=1;gradientColor=#CCE5FF;swimlaneFillColor=default;gradientDirection=south;rounded=1;shadow=1;" parent="1" vertex="1">
          <mxGeometry x="440" y="-430" width="360" height="240" as="geometry" />
        </mxCell>
        <mxCell id="h82VSDBW97GAlDBscp8d-73" value="" style="shape=partialRectangle;collapsible=0;dropTarget=0;pointerEvents=0;fillColor=none;points=[[0,0.5],[1,0.5]];portConstraint=eastwest;top=0;left=0;right=0;bottom=1;" parent="h82VSDBW97GAlDBscp8d-72" vertex="1">
          <mxGeometry y="30" width="360" height="30" as="geometry" />
        </mxCell>
        <mxCell id="h82VSDBW97GAlDBscp8d-74" value="PK" style="shape=partialRectangle;overflow=hidden;connectable=0;fillColor=none;top=0;left=0;bottom=0;right=0;fontStyle=1;" parent="h82VSDBW97GAlDBscp8d-73" vertex="1">
          <mxGeometry width="30" height="30" as="geometry">
            <mxRectangle width="30" height="30" as="alternateBounds" />
          </mxGeometry>
        </mxCell>
        <mxCell id="h82VSDBW97GAlDBscp8d-75" value="id" style="shape=partialRectangle;overflow=hidden;connectable=0;fillColor=none;top=0;left=0;bottom=0;right=0;align=left;spacingLeft=6;fontStyle=5;" parent="h82VSDBW97GAlDBscp8d-73" vertex="1">
          <mxGeometry x="30" width="100" height="30" as="geometry">
            <mxRectangle width="100" height="30" as="alternateBounds" />
          </mxGeometry>
        </mxCell>
        <mxCell id="h82VSDBW97GAlDBscp8d-76" value="INTEGER PRIMARY KEY IDENTITY" style="shape=partialRectangle;overflow=hidden;connectable=0;fillColor=none;top=0;left=0;bottom=0;right=0;align=left;spacingLeft=6;fontStyle=5;" parent="h82VSDBW97GAlDBscp8d-73" vertex="1">
          <mxGeometry x="130" width="230" height="30" as="geometry">
            <mxRectangle width="230" height="30" as="alternateBounds" />
          </mxGeometry>
        </mxCell>
        <mxCell id="h82VSDBW97GAlDBscp8d-109" value="" style="shape=partialRectangle;collapsible=0;dropTarget=0;pointerEvents=0;fillColor=none;points=[[0,0.5],[1,0.5]];portConstraint=eastwest;top=0;left=0;right=0;bottom=0;" parent="h82VSDBW97GAlDBscp8d-72" vertex="1">
          <mxGeometry y="60" width="360" height="30" as="geometry" />
        </mxCell>
        <mxCell id="h82VSDBW97GAlDBscp8d-110" value="" style="shape=partialRectangle;overflow=hidden;connectable=0;fillColor=none;top=0;left=0;bottom=0;right=0;" parent="h82VSDBW97GAlDBscp8d-109" vertex="1">
          <mxGeometry width="30" height="30" as="geometry">
            <mxRectangle width="30" height="30" as="alternateBounds" />
          </mxGeometry>
        </mxCell>
        <mxCell id="h82VSDBW97GAlDBscp8d-111" value="data" style="shape=partialRectangle;overflow=hidden;connectable=0;fillColor=none;top=0;left=0;bottom=0;right=0;align=left;spacingLeft=6;" parent="h82VSDBW97GAlDBscp8d-109" vertex="1">
          <mxGeometry x="30" width="100" height="30" as="geometry">
            <mxRectangle width="100" height="30" as="alternateBounds" />
          </mxGeometry>
        </mxCell>
        <mxCell id="h82VSDBW97GAlDBscp8d-112" value="DATETIME NOT NULL" style="shape=partialRectangle;overflow=hidden;connectable=0;fillColor=none;top=0;left=0;bottom=0;right=0;align=left;spacingLeft=6;" parent="h82VSDBW97GAlDBscp8d-109" vertex="1">
          <mxGeometry x="130" width="230" height="30" as="geometry">
            <mxRectangle width="230" height="30" as="alternateBounds" />
          </mxGeometry>
        </mxCell>
        <mxCell id="ZPM3V8VGhVody_l9zxSt-23" value="" style="shape=partialRectangle;collapsible=0;dropTarget=0;pointerEvents=0;fillColor=none;points=[[0,0.5],[1,0.5]];portConstraint=eastwest;top=0;left=0;right=0;bottom=0;" parent="h82VSDBW97GAlDBscp8d-72" vertex="1">
          <mxGeometry y="90" width="360" height="30" as="geometry" />
        </mxCell>
        <mxCell id="ZPM3V8VGhVody_l9zxSt-24" value="" style="shape=partialRectangle;overflow=hidden;connectable=0;fillColor=none;top=0;left=0;bottom=0;right=0;" parent="ZPM3V8VGhVody_l9zxSt-23" vertex="1">
          <mxGeometry width="30" height="30" as="geometry">
            <mxRectangle width="30" height="30" as="alternateBounds" />
          </mxGeometry>
        </mxCell>
        <mxCell id="ZPM3V8VGhVody_l9zxSt-25" value="descricao" style="shape=partialRectangle;overflow=hidden;connectable=0;fillColor=none;top=0;left=0;bottom=0;right=0;align=left;spacingLeft=6;" parent="ZPM3V8VGhVody_l9zxSt-23" vertex="1">
          <mxGeometry x="30" width="100" height="30" as="geometry">
            <mxRectangle width="100" height="30" as="alternateBounds" />
          </mxGeometry>
        </mxCell>
        <mxCell id="ZPM3V8VGhVody_l9zxSt-26" value="TEXT" style="shape=partialRectangle;overflow=hidden;connectable=0;fillColor=none;top=0;left=0;bottom=0;right=0;align=left;spacingLeft=6;" parent="ZPM3V8VGhVody_l9zxSt-23" vertex="1">
          <mxGeometry x="130" width="230" height="30" as="geometry">
            <mxRectangle width="230" height="30" as="alternateBounds" />
          </mxGeometry>
        </mxCell>
        <mxCell id="ZPM3V8VGhVody_l9zxSt-19" value="" style="shape=partialRectangle;collapsible=0;dropTarget=0;pointerEvents=0;fillColor=none;points=[[0,0.5],[1,0.5]];portConstraint=eastwest;top=0;left=0;right=0;bottom=0;" parent="h82VSDBW97GAlDBscp8d-72" vertex="1">
          <mxGeometry y="120" width="360" height="30" as="geometry" />
        </mxCell>
        <mxCell id="ZPM3V8VGhVody_l9zxSt-20" value="FK" style="shape=partialRectangle;overflow=hidden;connectable=0;fillColor=none;top=0;left=0;bottom=0;right=0;" parent="ZPM3V8VGhVody_l9zxSt-19" vertex="1">
          <mxGeometry width="30" height="30" as="geometry">
            <mxRectangle width="30" height="30" as="alternateBounds" />
          </mxGeometry>
        </mxCell>
        <mxCell id="ZPM3V8VGhVody_l9zxSt-21" value="sintoma" style="shape=partialRectangle;overflow=hidden;connectable=0;fillColor=none;top=0;left=0;bottom=0;right=0;align=left;spacingLeft=6;" parent="ZPM3V8VGhVody_l9zxSt-19" vertex="1">
          <mxGeometry x="30" width="100" height="30" as="geometry">
            <mxRectangle width="100" height="30" as="alternateBounds" />
          </mxGeometry>
        </mxCell>
        <mxCell id="ZPM3V8VGhVody_l9zxSt-22" value="INTEGER NOT NULL" style="shape=partialRectangle;overflow=hidden;connectable=0;fillColor=none;top=0;left=0;bottom=0;right=0;align=left;spacingLeft=6;" parent="ZPM3V8VGhVody_l9zxSt-19" vertex="1">
          <mxGeometry x="130" width="230" height="30" as="geometry">
            <mxRectangle width="230" height="30" as="alternateBounds" />
          </mxGeometry>
        </mxCell>
        <mxCell id="h82VSDBW97GAlDBscp8d-77" value="" style="shape=partialRectangle;collapsible=0;dropTarget=0;pointerEvents=0;fillColor=none;points=[[0,0.5],[1,0.5]];portConstraint=eastwest;top=0;left=0;right=0;bottom=0;" parent="h82VSDBW97GAlDBscp8d-72" vertex="1">
          <mxGeometry y="150" width="360" height="30" as="geometry" />
        </mxCell>
        <mxCell id="h82VSDBW97GAlDBscp8d-78" value="FK" style="shape=partialRectangle;overflow=hidden;connectable=0;fillColor=none;top=0;left=0;bottom=0;right=0;" parent="h82VSDBW97GAlDBscp8d-77" vertex="1">
          <mxGeometry width="30" height="30" as="geometry">
            <mxRectangle width="30" height="30" as="alternateBounds" />
          </mxGeometry>
        </mxCell>
        <mxCell id="h82VSDBW97GAlDBscp8d-79" value="tipo_consulta" style="shape=partialRectangle;overflow=hidden;connectable=0;fillColor=none;top=0;left=0;bottom=0;right=0;align=left;spacingLeft=6;" parent="h82VSDBW97GAlDBscp8d-77" vertex="1">
          <mxGeometry x="30" width="100" height="30" as="geometry">
            <mxRectangle width="100" height="30" as="alternateBounds" />
          </mxGeometry>
        </mxCell>
        <mxCell id="h82VSDBW97GAlDBscp8d-80" value="INTEGER NOT NULL" style="shape=partialRectangle;overflow=hidden;connectable=0;fillColor=none;top=0;left=0;bottom=0;right=0;align=left;spacingLeft=6;" parent="h82VSDBW97GAlDBscp8d-77" vertex="1">
          <mxGeometry x="130" width="230" height="30" as="geometry">
            <mxRectangle width="230" height="30" as="alternateBounds" />
          </mxGeometry>
        </mxCell>
        <mxCell id="h82VSDBW97GAlDBscp8d-89" value="" style="shape=partialRectangle;collapsible=0;dropTarget=0;pointerEvents=0;fillColor=none;points=[[0,0.5],[1,0.5]];portConstraint=eastwest;top=0;left=0;right=0;bottom=0;" parent="h82VSDBW97GAlDBscp8d-72" vertex="1">
          <mxGeometry y="180" width="360" height="30" as="geometry" />
        </mxCell>
        <mxCell id="h82VSDBW97GAlDBscp8d-90" value="FK" style="shape=partialRectangle;overflow=hidden;connectable=0;fillColor=none;top=0;left=0;bottom=0;right=0;" parent="h82VSDBW97GAlDBscp8d-89" vertex="1">
          <mxGeometry width="30" height="30" as="geometry">
            <mxRectangle width="30" height="30" as="alternateBounds" />
          </mxGeometry>
        </mxCell>
        <mxCell id="h82VSDBW97GAlDBscp8d-91" value="paciente_id" style="shape=partialRectangle;overflow=hidden;connectable=0;fillColor=none;top=0;left=0;bottom=0;right=0;align=left;spacingLeft=6;" parent="h82VSDBW97GAlDBscp8d-89" vertex="1">
          <mxGeometry x="30" width="100" height="30" as="geometry">
            <mxRectangle width="100" height="30" as="alternateBounds" />
          </mxGeometry>
        </mxCell>
        <mxCell id="h82VSDBW97GAlDBscp8d-92" value="INTEGER NOT NULL" style="shape=partialRectangle;overflow=hidden;connectable=0;fillColor=none;top=0;left=0;bottom=0;right=0;align=left;spacingLeft=6;" parent="h82VSDBW97GAlDBscp8d-89" vertex="1">
          <mxGeometry x="130" width="230" height="30" as="geometry">
            <mxRectangle width="230" height="30" as="alternateBounds" />
          </mxGeometry>
        </mxCell>
        <mxCell id="h82VSDBW97GAlDBscp8d-164" value="" style="shape=partialRectangle;collapsible=0;dropTarget=0;pointerEvents=0;fillColor=none;points=[[0,0.5],[1,0.5]];portConstraint=eastwest;top=0;left=0;right=0;bottom=0;" parent="h82VSDBW97GAlDBscp8d-72" vertex="1">
          <mxGeometry y="210" width="360" height="30" as="geometry" />
        </mxCell>
        <mxCell id="h82VSDBW97GAlDBscp8d-165" value="FK" style="shape=partialRectangle;overflow=hidden;connectable=0;fillColor=none;top=0;left=0;bottom=0;right=0;" parent="h82VSDBW97GAlDBscp8d-164" vertex="1">
          <mxGeometry width="30" height="30" as="geometry">
            <mxRectangle width="30" height="30" as="alternateBounds" />
          </mxGeometry>
        </mxCell>
        <mxCell id="h82VSDBW97GAlDBscp8d-166" value="medico_id" style="shape=partialRectangle;overflow=hidden;connectable=0;fillColor=none;top=0;left=0;bottom=0;right=0;align=left;spacingLeft=6;" parent="h82VSDBW97GAlDBscp8d-164" vertex="1">
          <mxGeometry x="30" width="100" height="30" as="geometry">
            <mxRectangle width="100" height="30" as="alternateBounds" />
          </mxGeometry>
        </mxCell>
        <mxCell id="h82VSDBW97GAlDBscp8d-167" value="INTEGER NOT NULL" style="shape=partialRectangle;overflow=hidden;connectable=0;fillColor=none;top=0;left=0;bottom=0;right=0;align=left;spacingLeft=6;" parent="h82VSDBW97GAlDBscp8d-164" vertex="1">
          <mxGeometry x="130" width="230" height="30" as="geometry">
            <mxRectangle width="230" height="30" as="alternateBounds" />
          </mxGeometry>
        </mxCell>
        <mxCell id="h82VSDBW97GAlDBscp8d-94" style="edgeStyle=orthogonalEdgeStyle;rounded=0;orthogonalLoop=1;jettySize=auto;html=1;endArrow=ERone;endFill=0;startArrow=ERzeroToMany;startFill=0;" parent="1" source="h82VSDBW97GAlDBscp8d-89" target="C-vyLk0tnHw3VtMMgP7b-24" edge="1">
          <mxGeometry relative="1" as="geometry">
            <Array as="points">
              <mxPoint x="-90" y="-240" />
              <mxPoint x="-90" y="-555" />
            </Array>
          </mxGeometry>
        </mxCell>
        <mxCell id="h82VSDBW97GAlDBscp8d-95" value="Exames" style="shape=table;startSize=30;container=1;collapsible=1;childLayout=tableLayout;fixedRows=1;rowLines=0;fontStyle=1;align=center;resizeLast=1;gradientColor=#CCE5FF;swimlaneFillColor=default;gradientDirection=south;rounded=1;shadow=1;" parent="1" vertex="1">
          <mxGeometry x="-520" y="-390" width="360" height="180" as="geometry" />
        </mxCell>
        <mxCell id="h82VSDBW97GAlDBscp8d-96" value="" style="shape=partialRectangle;collapsible=0;dropTarget=0;pointerEvents=0;fillColor=none;points=[[0,0.5],[1,0.5]];portConstraint=eastwest;top=0;left=0;right=0;bottom=1;" parent="h82VSDBW97GAlDBscp8d-95" vertex="1">
          <mxGeometry y="30" width="360" height="30" as="geometry" />
        </mxCell>
        <mxCell id="h82VSDBW97GAlDBscp8d-97" value="PK" style="shape=partialRectangle;overflow=hidden;connectable=0;fillColor=none;top=0;left=0;bottom=0;right=0;fontStyle=1;" parent="h82VSDBW97GAlDBscp8d-96" vertex="1">
          <mxGeometry width="30" height="30" as="geometry">
            <mxRectangle width="30" height="30" as="alternateBounds" />
          </mxGeometry>
        </mxCell>
        <mxCell id="h82VSDBW97GAlDBscp8d-98" value="id" style="shape=partialRectangle;overflow=hidden;connectable=0;fillColor=none;top=0;left=0;bottom=0;right=0;align=left;spacingLeft=6;fontStyle=5;" parent="h82VSDBW97GAlDBscp8d-96" vertex="1">
          <mxGeometry x="30" width="100" height="30" as="geometry">
            <mxRectangle width="100" height="30" as="alternateBounds" />
          </mxGeometry>
        </mxCell>
        <mxCell id="h82VSDBW97GAlDBscp8d-99" value="INTEGER PRIMARY KEY IDENTITY" style="shape=partialRectangle;overflow=hidden;connectable=0;fillColor=none;top=0;left=0;bottom=0;right=0;align=left;spacingLeft=6;fontStyle=5;" parent="h82VSDBW97GAlDBscp8d-96" vertex="1">
          <mxGeometry x="130" width="230" height="30" as="geometry">
            <mxRectangle width="230" height="30" as="alternateBounds" />
          </mxGeometry>
        </mxCell>
        <mxCell id="h82VSDBW97GAlDBscp8d-100" value="" style="shape=partialRectangle;collapsible=0;dropTarget=0;pointerEvents=0;fillColor=none;points=[[0,0.5],[1,0.5]];portConstraint=eastwest;top=0;left=0;right=0;bottom=0;" parent="h82VSDBW97GAlDBscp8d-95" vertex="1">
          <mxGeometry y="60" width="360" height="30" as="geometry" />
        </mxCell>
        <mxCell id="h82VSDBW97GAlDBscp8d-101" value="" style="shape=partialRectangle;overflow=hidden;connectable=0;fillColor=none;top=0;left=0;bottom=0;right=0;" parent="h82VSDBW97GAlDBscp8d-100" vertex="1">
          <mxGeometry width="30" height="30" as="geometry">
            <mxRectangle width="30" height="30" as="alternateBounds" />
          </mxGeometry>
        </mxCell>
        <mxCell id="h82VSDBW97GAlDBscp8d-102" value="tipo_exame" style="shape=partialRectangle;overflow=hidden;connectable=0;fillColor=none;top=0;left=0;bottom=0;right=0;align=left;spacingLeft=6;" parent="h82VSDBW97GAlDBscp8d-100" vertex="1">
          <mxGeometry x="30" width="100" height="30" as="geometry">
            <mxRectangle width="100" height="30" as="alternateBounds" />
          </mxGeometry>
        </mxCell>
        <mxCell id="h82VSDBW97GAlDBscp8d-103" value="VARCHAR(50) NOT NULL" style="shape=partialRectangle;overflow=hidden;connectable=0;fillColor=none;top=0;left=0;bottom=0;right=0;align=left;spacingLeft=6;" parent="h82VSDBW97GAlDBscp8d-100" vertex="1">
          <mxGeometry x="130" width="230" height="30" as="geometry">
            <mxRectangle width="230" height="30" as="alternateBounds" />
          </mxGeometry>
        </mxCell>
        <mxCell id="h82VSDBW97GAlDBscp8d-113" value="" style="shape=partialRectangle;collapsible=0;dropTarget=0;pointerEvents=0;fillColor=none;points=[[0,0.5],[1,0.5]];portConstraint=eastwest;top=0;left=0;right=0;bottom=0;" parent="h82VSDBW97GAlDBscp8d-95" vertex="1">
          <mxGeometry y="90" width="360" height="30" as="geometry" />
        </mxCell>
        <mxCell id="h82VSDBW97GAlDBscp8d-114" value="" style="shape=partialRectangle;overflow=hidden;connectable=0;fillColor=none;top=0;left=0;bottom=0;right=0;" parent="h82VSDBW97GAlDBscp8d-113" vertex="1">
          <mxGeometry width="30" height="30" as="geometry">
            <mxRectangle width="30" height="30" as="alternateBounds" />
          </mxGeometry>
        </mxCell>
        <mxCell id="h82VSDBW97GAlDBscp8d-115" value="data" style="shape=partialRectangle;overflow=hidden;connectable=0;fillColor=none;top=0;left=0;bottom=0;right=0;align=left;spacingLeft=6;" parent="h82VSDBW97GAlDBscp8d-113" vertex="1">
          <mxGeometry x="30" width="100" height="30" as="geometry">
            <mxRectangle width="100" height="30" as="alternateBounds" />
          </mxGeometry>
        </mxCell>
        <mxCell id="h82VSDBW97GAlDBscp8d-116" value="DATETIME NOT NULL" style="shape=partialRectangle;overflow=hidden;connectable=0;fillColor=none;top=0;left=0;bottom=0;right=0;align=left;spacingLeft=6;" parent="h82VSDBW97GAlDBscp8d-113" vertex="1">
          <mxGeometry x="130" width="230" height="30" as="geometry">
            <mxRectangle width="230" height="30" as="alternateBounds" />
          </mxGeometry>
        </mxCell>
        <mxCell id="h82VSDBW97GAlDBscp8d-174" value="" style="shape=partialRectangle;collapsible=0;dropTarget=0;pointerEvents=0;fillColor=none;points=[[0,0.5],[1,0.5]];portConstraint=eastwest;top=0;left=0;right=0;bottom=0;" parent="h82VSDBW97GAlDBscp8d-95" vertex="1">
          <mxGeometry y="120" width="360" height="30" as="geometry" />
        </mxCell>
        <mxCell id="h82VSDBW97GAlDBscp8d-175" value="" style="shape=partialRectangle;overflow=hidden;connectable=0;fillColor=none;top=0;left=0;bottom=0;right=0;" parent="h82VSDBW97GAlDBscp8d-174" vertex="1">
          <mxGeometry width="30" height="30" as="geometry">
            <mxRectangle width="30" height="30" as="alternateBounds" />
          </mxGeometry>
        </mxCell>
        <mxCell id="h82VSDBW97GAlDBscp8d-176" value="resultado" style="shape=partialRectangle;overflow=hidden;connectable=0;fillColor=none;top=0;left=0;bottom=0;right=0;align=left;spacingLeft=6;" parent="h82VSDBW97GAlDBscp8d-174" vertex="1">
          <mxGeometry x="30" width="100" height="30" as="geometry">
            <mxRectangle width="100" height="30" as="alternateBounds" />
          </mxGeometry>
        </mxCell>
        <mxCell id="h82VSDBW97GAlDBscp8d-177" value="VARCHAR(50)" style="shape=partialRectangle;overflow=hidden;connectable=0;fillColor=none;top=0;left=0;bottom=0;right=0;align=left;spacingLeft=6;" parent="h82VSDBW97GAlDBscp8d-174" vertex="1">
          <mxGeometry x="130" width="230" height="30" as="geometry">
            <mxRectangle width="230" height="30" as="alternateBounds" />
          </mxGeometry>
        </mxCell>
        <mxCell id="h82VSDBW97GAlDBscp8d-104" value="" style="shape=partialRectangle;collapsible=0;dropTarget=0;pointerEvents=0;fillColor=none;points=[[0,0.5],[1,0.5]];portConstraint=eastwest;top=0;left=0;right=0;bottom=0;" parent="h82VSDBW97GAlDBscp8d-95" vertex="1">
          <mxGeometry y="150" width="360" height="30" as="geometry" />
        </mxCell>
        <mxCell id="h82VSDBW97GAlDBscp8d-105" value="FK" style="shape=partialRectangle;overflow=hidden;connectable=0;fillColor=none;top=0;left=0;bottom=0;right=0;" parent="h82VSDBW97GAlDBscp8d-104" vertex="1">
          <mxGeometry width="30" height="30" as="geometry">
            <mxRectangle width="30" height="30" as="alternateBounds" />
          </mxGeometry>
        </mxCell>
        <mxCell id="h82VSDBW97GAlDBscp8d-106" value="paciente_id" style="shape=partialRectangle;overflow=hidden;connectable=0;fillColor=none;top=0;left=0;bottom=0;right=0;align=left;spacingLeft=6;" parent="h82VSDBW97GAlDBscp8d-104" vertex="1">
          <mxGeometry x="30" width="100" height="30" as="geometry">
            <mxRectangle width="100" height="30" as="alternateBounds" />
          </mxGeometry>
        </mxCell>
        <mxCell id="h82VSDBW97GAlDBscp8d-107" value="INTEGER NOT NULL" style="shape=partialRectangle;overflow=hidden;connectable=0;fillColor=none;top=0;left=0;bottom=0;right=0;align=left;spacingLeft=6;" parent="h82VSDBW97GAlDBscp8d-104" vertex="1">
          <mxGeometry x="130" width="230" height="30" as="geometry">
            <mxRectangle width="230" height="30" as="alternateBounds" />
          </mxGeometry>
        </mxCell>
        <mxCell id="h82VSDBW97GAlDBscp8d-108" style="edgeStyle=orthogonalEdgeStyle;rounded=0;orthogonalLoop=1;jettySize=auto;html=1;endArrow=ERone;endFill=0;startArrow=ERzeroToMany;startFill=0;" parent="1" source="h82VSDBW97GAlDBscp8d-104" target="C-vyLk0tnHw3VtMMgP7b-24" edge="1">
          <mxGeometry relative="1" as="geometry">
            <Array as="points">
              <mxPoint x="-120" y="-225" />
              <mxPoint x="-120" y="-555" />
            </Array>
          </mxGeometry>
        </mxCell>
        <mxCell id="h82VSDBW97GAlDBscp8d-117" value="Medico" style="shape=table;startSize=30;container=1;collapsible=1;childLayout=tableLayout;fixedRows=1;rowLines=0;fontStyle=1;align=center;resizeLast=1;gradientColor=#CCE5FF;swimlaneFillColor=default;gradientDirection=south;rounded=1;shadow=1;" parent="1" vertex="1">
          <mxGeometry x="940" y="-600" width="350" height="120" as="geometry" />
        </mxCell>
        <mxCell id="h82VSDBW97GAlDBscp8d-118" value="" style="shape=partialRectangle;collapsible=0;dropTarget=0;pointerEvents=0;fillColor=none;points=[[0,0.5],[1,0.5]];portConstraint=eastwest;top=0;left=0;right=0;bottom=1;" parent="h82VSDBW97GAlDBscp8d-117" vertex="1">
          <mxGeometry y="30" width="350" height="30" as="geometry" />
        </mxCell>
        <mxCell id="h82VSDBW97GAlDBscp8d-119" value="PK" style="shape=partialRectangle;overflow=hidden;connectable=0;fillColor=none;top=0;left=0;bottom=0;right=0;fontStyle=1;" parent="h82VSDBW97GAlDBscp8d-118" vertex="1">
          <mxGeometry width="30" height="30" as="geometry">
            <mxRectangle width="30" height="30" as="alternateBounds" />
          </mxGeometry>
        </mxCell>
        <mxCell id="h82VSDBW97GAlDBscp8d-120" value="id" style="shape=partialRectangle;overflow=hidden;connectable=0;fillColor=none;top=0;left=0;bottom=0;right=0;align=left;spacingLeft=6;fontStyle=5;" parent="h82VSDBW97GAlDBscp8d-118" vertex="1">
          <mxGeometry x="30" width="100" height="30" as="geometry">
            <mxRectangle width="100" height="30" as="alternateBounds" />
          </mxGeometry>
        </mxCell>
        <mxCell id="h82VSDBW97GAlDBscp8d-121" value="INTEGER PRIMARY KEY IDENTITY" style="shape=partialRectangle;overflow=hidden;connectable=0;fillColor=none;top=0;left=0;bottom=0;right=0;align=left;spacingLeft=6;fontStyle=5;" parent="h82VSDBW97GAlDBscp8d-118" vertex="1">
          <mxGeometry x="130" width="220" height="30" as="geometry">
            <mxRectangle width="220" height="30" as="alternateBounds" />
          </mxGeometry>
        </mxCell>
        <mxCell id="h82VSDBW97GAlDBscp8d-160" value="" style="shape=partialRectangle;collapsible=0;dropTarget=0;pointerEvents=0;fillColor=none;points=[[0,0.5],[1,0.5]];portConstraint=eastwest;top=0;left=0;right=0;bottom=0;" parent="h82VSDBW97GAlDBscp8d-117" vertex="1">
          <mxGeometry y="60" width="350" height="30" as="geometry" />
        </mxCell>
        <mxCell id="h82VSDBW97GAlDBscp8d-161" value="FK" style="shape=partialRectangle;overflow=hidden;connectable=0;fillColor=none;top=0;left=0;bottom=0;right=0;" parent="h82VSDBW97GAlDBscp8d-160" vertex="1">
          <mxGeometry width="30" height="30" as="geometry">
            <mxRectangle width="30" height="30" as="alternateBounds" />
          </mxGeometry>
        </mxCell>
        <mxCell id="h82VSDBW97GAlDBscp8d-162" value="pessoa" style="shape=partialRectangle;overflow=hidden;connectable=0;fillColor=none;top=0;left=0;bottom=0;right=0;align=left;spacingLeft=6;" parent="h82VSDBW97GAlDBscp8d-160" vertex="1">
          <mxGeometry x="30" width="100" height="30" as="geometry">
            <mxRectangle width="100" height="30" as="alternateBounds" />
          </mxGeometry>
        </mxCell>
        <mxCell id="h82VSDBW97GAlDBscp8d-163" value="INTEGER NOT NULL" style="shape=partialRectangle;overflow=hidden;connectable=0;fillColor=none;top=0;left=0;bottom=0;right=0;align=left;spacingLeft=6;" parent="h82VSDBW97GAlDBscp8d-160" vertex="1">
          <mxGeometry x="130" width="220" height="30" as="geometry">
            <mxRectangle width="220" height="30" as="alternateBounds" />
          </mxGeometry>
        </mxCell>
        <mxCell id="mNH1ytMq66VUiCfq0EZo-73" value="" style="shape=partialRectangle;collapsible=0;dropTarget=0;pointerEvents=0;fillColor=none;points=[[0,0.5],[1,0.5]];portConstraint=eastwest;top=0;left=0;right=0;bottom=0;" parent="h82VSDBW97GAlDBscp8d-117" vertex="1">
          <mxGeometry y="90" width="350" height="30" as="geometry" />
        </mxCell>
        <mxCell id="mNH1ytMq66VUiCfq0EZo-74" value="FK" style="shape=partialRectangle;overflow=hidden;connectable=0;fillColor=none;top=0;left=0;bottom=0;right=0;" parent="mNH1ytMq66VUiCfq0EZo-73" vertex="1">
          <mxGeometry width="30" height="30" as="geometry">
            <mxRectangle width="30" height="30" as="alternateBounds" />
          </mxGeometry>
        </mxCell>
        <mxCell id="mNH1ytMq66VUiCfq0EZo-75" value="especializacao" style="shape=partialRectangle;overflow=hidden;connectable=0;fillColor=none;top=0;left=0;bottom=0;right=0;align=left;spacingLeft=6;" parent="mNH1ytMq66VUiCfq0EZo-73" vertex="1">
          <mxGeometry x="30" width="100" height="30" as="geometry">
            <mxRectangle width="100" height="30" as="alternateBounds" />
          </mxGeometry>
        </mxCell>
        <mxCell id="mNH1ytMq66VUiCfq0EZo-76" value="INTEGER NOT NULL" style="shape=partialRectangle;overflow=hidden;connectable=0;fillColor=none;top=0;left=0;bottom=0;right=0;align=left;spacingLeft=6;" parent="mNH1ytMq66VUiCfq0EZo-73" vertex="1">
          <mxGeometry x="130" width="220" height="30" as="geometry">
            <mxRectangle width="220" height="30" as="alternateBounds" />
          </mxGeometry>
        </mxCell>
        <mxCell id="h82VSDBW97GAlDBscp8d-142" value="Tipo_Consulta" style="shape=table;startSize=30;container=1;collapsible=1;childLayout=tableLayout;fixedRows=1;rowLines=0;fontStyle=1;align=center;resizeLast=1;gradientColor=#CCE5FF;swimlaneFillColor=default;gradientDirection=south;rounded=1;shadow=1;" parent="1" vertex="1">
          <mxGeometry x="440" y="-600" width="360" height="90" as="geometry" />
        </mxCell>
        <mxCell id="h82VSDBW97GAlDBscp8d-143" value="" style="shape=partialRectangle;collapsible=0;dropTarget=0;pointerEvents=0;fillColor=none;points=[[0,0.5],[1,0.5]];portConstraint=eastwest;top=0;left=0;right=0;bottom=1;" parent="h82VSDBW97GAlDBscp8d-142" vertex="1">
          <mxGeometry y="30" width="360" height="30" as="geometry" />
        </mxCell>
        <mxCell id="h82VSDBW97GAlDBscp8d-144" value="PK" style="shape=partialRectangle;overflow=hidden;connectable=0;fillColor=none;top=0;left=0;bottom=0;right=0;fontStyle=1;" parent="h82VSDBW97GAlDBscp8d-143" vertex="1">
          <mxGeometry width="30" height="30" as="geometry">
            <mxRectangle width="30" height="30" as="alternateBounds" />
          </mxGeometry>
        </mxCell>
        <mxCell id="h82VSDBW97GAlDBscp8d-145" value="id" style="shape=partialRectangle;overflow=hidden;connectable=0;fillColor=none;top=0;left=0;bottom=0;right=0;align=left;spacingLeft=6;fontStyle=5;" parent="h82VSDBW97GAlDBscp8d-143" vertex="1">
          <mxGeometry x="30" width="100" height="30" as="geometry">
            <mxRectangle width="100" height="30" as="alternateBounds" />
          </mxGeometry>
        </mxCell>
        <mxCell id="h82VSDBW97GAlDBscp8d-146" value="INTEGER PRIMARY KEY IDENTITY" style="shape=partialRectangle;overflow=hidden;connectable=0;fillColor=none;top=0;left=0;bottom=0;right=0;align=left;spacingLeft=6;fontStyle=5;" parent="h82VSDBW97GAlDBscp8d-143" vertex="1">
          <mxGeometry x="130" width="230" height="30" as="geometry">
            <mxRectangle width="230" height="30" as="alternateBounds" />
          </mxGeometry>
        </mxCell>
        <mxCell id="h82VSDBW97GAlDBscp8d-147" value="" style="shape=partialRectangle;collapsible=0;dropTarget=0;pointerEvents=0;fillColor=none;points=[[0,0.5],[1,0.5]];portConstraint=eastwest;top=0;left=0;right=0;bottom=0;" parent="h82VSDBW97GAlDBscp8d-142" vertex="1">
          <mxGeometry y="60" width="360" height="30" as="geometry" />
        </mxCell>
        <mxCell id="h82VSDBW97GAlDBscp8d-148" value="" style="shape=partialRectangle;overflow=hidden;connectable=0;fillColor=none;top=0;left=0;bottom=0;right=0;" parent="h82VSDBW97GAlDBscp8d-147" vertex="1">
          <mxGeometry width="30" height="30" as="geometry">
            <mxRectangle width="30" height="30" as="alternateBounds" />
          </mxGeometry>
        </mxCell>
        <mxCell id="h82VSDBW97GAlDBscp8d-149" value="nome" style="shape=partialRectangle;overflow=hidden;connectable=0;fillColor=none;top=0;left=0;bottom=0;right=0;align=left;spacingLeft=6;" parent="h82VSDBW97GAlDBscp8d-147" vertex="1">
          <mxGeometry x="30" width="100" height="30" as="geometry">
            <mxRectangle width="100" height="30" as="alternateBounds" />
          </mxGeometry>
        </mxCell>
        <mxCell id="h82VSDBW97GAlDBscp8d-150" value="VARCHAR(50) NOT NULL" style="shape=partialRectangle;overflow=hidden;connectable=0;fillColor=none;top=0;left=0;bottom=0;right=0;align=left;spacingLeft=6;" parent="h82VSDBW97GAlDBscp8d-147" vertex="1">
          <mxGeometry x="130" width="230" height="30" as="geometry">
            <mxRectangle width="230" height="30" as="alternateBounds" />
          </mxGeometry>
        </mxCell>
        <mxCell id="h82VSDBW97GAlDBscp8d-159" style="edgeStyle=orthogonalEdgeStyle;rounded=0;orthogonalLoop=1;jettySize=auto;html=1;exitX=0;exitY=0.5;exitDx=0;exitDy=0;endArrow=ERone;endFill=0;startArrow=ERone;startFill=0;" parent="1" source="h82VSDBW97GAlDBscp8d-77" target="h82VSDBW97GAlDBscp8d-143" edge="1">
          <mxGeometry relative="1" as="geometry">
            <Array as="points">
              <mxPoint x="430" y="-265" />
              <mxPoint x="430" y="-555" />
            </Array>
          </mxGeometry>
        </mxCell>
        <mxCell id="h82VSDBW97GAlDBscp8d-168" style="edgeStyle=orthogonalEdgeStyle;rounded=0;orthogonalLoop=1;jettySize=auto;html=1;endArrow=ERmandOne;endFill=0;startArrow=ERzeroToMany;startFill=0;" parent="1" source="h82VSDBW97GAlDBscp8d-164" target="h82VSDBW97GAlDBscp8d-118" edge="1">
          <mxGeometry relative="1" as="geometry">
            <Array as="points">
              <mxPoint x="860" y="-200" />
              <mxPoint x="860" y="-555" />
            </Array>
          </mxGeometry>
        </mxCell>
        <mxCell id="h82VSDBW97GAlDBscp8d-173" style="edgeStyle=orthogonalEdgeStyle;rounded=0;orthogonalLoop=1;jettySize=auto;html=1;endArrow=ERzeroToOne;endFill=0;startArrow=ERzeroToOne;startFill=0;" parent="1" source="h82VSDBW97GAlDBscp8d-63" target="h82VSDBW97GAlDBscp8d-96" edge="1">
          <mxGeometry relative="1" as="geometry">
            <Array as="points">
              <mxPoint x="-550" y="-465" />
              <mxPoint x="-550" y="-345" />
            </Array>
          </mxGeometry>
        </mxCell>
        <mxCell id="h82VSDBW97GAlDBscp8d-178" value="Especializacao" style="shape=table;startSize=30;container=1;collapsible=1;childLayout=tableLayout;fixedRows=1;rowLines=0;fontStyle=1;align=center;resizeLast=1;gradientColor=#CCE5FF;swimlaneFillColor=default;gradientDirection=south;rounded=1;shadow=1;" parent="1" vertex="1">
          <mxGeometry x="940" y="-450" width="350" height="90" as="geometry" />
        </mxCell>
        <mxCell id="h82VSDBW97GAlDBscp8d-179" value="" style="shape=partialRectangle;collapsible=0;dropTarget=0;pointerEvents=0;fillColor=none;points=[[0,0.5],[1,0.5]];portConstraint=eastwest;top=0;left=0;right=0;bottom=1;" parent="h82VSDBW97GAlDBscp8d-178" vertex="1">
          <mxGeometry y="30" width="350" height="30" as="geometry" />
        </mxCell>
        <mxCell id="h82VSDBW97GAlDBscp8d-180" value="PK" style="shape=partialRectangle;overflow=hidden;connectable=0;fillColor=none;top=0;left=0;bottom=0;right=0;fontStyle=1;" parent="h82VSDBW97GAlDBscp8d-179" vertex="1">
          <mxGeometry width="30" height="30" as="geometry">
            <mxRectangle width="30" height="30" as="alternateBounds" />
          </mxGeometry>
        </mxCell>
        <mxCell id="h82VSDBW97GAlDBscp8d-181" value="id" style="shape=partialRectangle;overflow=hidden;connectable=0;fillColor=none;top=0;left=0;bottom=0;right=0;align=left;spacingLeft=6;fontStyle=5;" parent="h82VSDBW97GAlDBscp8d-179" vertex="1">
          <mxGeometry x="30" width="100" height="30" as="geometry">
            <mxRectangle width="100" height="30" as="alternateBounds" />
          </mxGeometry>
        </mxCell>
        <mxCell id="h82VSDBW97GAlDBscp8d-182" value="INTEGER PRIMARY KEY IDENTITY" style="shape=partialRectangle;overflow=hidden;connectable=0;fillColor=none;top=0;left=0;bottom=0;right=0;align=left;spacingLeft=6;fontStyle=5;" parent="h82VSDBW97GAlDBscp8d-179" vertex="1">
          <mxGeometry x="130" width="220" height="30" as="geometry">
            <mxRectangle width="220" height="30" as="alternateBounds" />
          </mxGeometry>
        </mxCell>
        <mxCell id="h82VSDBW97GAlDBscp8d-183" value="" style="shape=partialRectangle;collapsible=0;dropTarget=0;pointerEvents=0;fillColor=none;points=[[0,0.5],[1,0.5]];portConstraint=eastwest;top=0;left=0;right=0;bottom=0;" parent="h82VSDBW97GAlDBscp8d-178" vertex="1">
          <mxGeometry y="60" width="350" height="30" as="geometry" />
        </mxCell>
        <mxCell id="h82VSDBW97GAlDBscp8d-184" value="" style="shape=partialRectangle;overflow=hidden;connectable=0;fillColor=none;top=0;left=0;bottom=0;right=0;" parent="h82VSDBW97GAlDBscp8d-183" vertex="1">
          <mxGeometry width="30" height="30" as="geometry">
            <mxRectangle width="30" height="30" as="alternateBounds" />
          </mxGeometry>
        </mxCell>
        <mxCell id="h82VSDBW97GAlDBscp8d-185" value="nome" style="shape=partialRectangle;overflow=hidden;connectable=0;fillColor=none;top=0;left=0;bottom=0;right=0;align=left;spacingLeft=6;" parent="h82VSDBW97GAlDBscp8d-183" vertex="1">
          <mxGeometry x="30" width="100" height="30" as="geometry">
            <mxRectangle width="100" height="30" as="alternateBounds" />
          </mxGeometry>
        </mxCell>
        <mxCell id="h82VSDBW97GAlDBscp8d-186" value="VARCHAR(50) NOT NULL" style="shape=partialRectangle;overflow=hidden;connectable=0;fillColor=none;top=0;left=0;bottom=0;right=0;align=left;spacingLeft=6;" parent="h82VSDBW97GAlDBscp8d-183" vertex="1">
          <mxGeometry x="130" width="220" height="30" as="geometry">
            <mxRectangle width="220" height="30" as="alternateBounds" />
          </mxGeometry>
        </mxCell>
        <mxCell id="h82VSDBW97GAlDBscp8d-187" style="edgeStyle=orthogonalEdgeStyle;rounded=0;orthogonalLoop=1;jettySize=auto;html=1;endArrow=ERoneToMany;endFill=0;startArrow=ERone;startFill=0;" parent="1" source="mNH1ytMq66VUiCfq0EZo-73" target="h82VSDBW97GAlDBscp8d-179" edge="1">
          <mxGeometry relative="1" as="geometry">
            <Array as="points">
              <mxPoint x="1310" y="-500" />
              <mxPoint x="1310" y="-405" />
            </Array>
          </mxGeometry>
        </mxCell>
        <mxCell id="mNH1ytMq66VUiCfq0EZo-1" value="Endereco" style="shape=table;startSize=30;container=1;collapsible=1;childLayout=tableLayout;fixedRows=1;rowLines=0;fontStyle=1;align=center;resizeLast=1;swimlaneFillColor=default;gradientColor=#CCE5FF;gradientDirection=south;rounded=1;shadow=1;" parent="1" vertex="1">
          <mxGeometry x="-3.552713678800501e-15" y="-990" width="360" height="150" as="geometry" />
        </mxCell>
        <mxCell id="mNH1ytMq66VUiCfq0EZo-2" value="" style="shape=partialRectangle;collapsible=0;dropTarget=0;pointerEvents=0;fillColor=none;points=[[0,0.5],[1,0.5]];portConstraint=eastwest;top=0;left=0;right=0;bottom=1;" parent="mNH1ytMq66VUiCfq0EZo-1" vertex="1">
          <mxGeometry y="30" width="360" height="30" as="geometry" />
        </mxCell>
        <mxCell id="mNH1ytMq66VUiCfq0EZo-3" value="PK" style="shape=partialRectangle;overflow=hidden;connectable=0;fillColor=none;top=0;left=0;bottom=0;right=0;fontStyle=1;" parent="mNH1ytMq66VUiCfq0EZo-2" vertex="1">
          <mxGeometry width="30" height="30" as="geometry">
            <mxRectangle width="30" height="30" as="alternateBounds" />
          </mxGeometry>
        </mxCell>
        <mxCell id="mNH1ytMq66VUiCfq0EZo-4" value="id" style="shape=partialRectangle;overflow=hidden;connectable=0;fillColor=none;top=0;left=0;bottom=0;right=0;align=left;spacingLeft=6;fontStyle=5;" parent="mNH1ytMq66VUiCfq0EZo-2" vertex="1">
          <mxGeometry x="30" width="100" height="30" as="geometry">
            <mxRectangle width="100" height="30" as="alternateBounds" />
          </mxGeometry>
        </mxCell>
        <mxCell id="mNH1ytMq66VUiCfq0EZo-5" value="INTEGER PRIMARY KEY IDENTITY" style="shape=partialRectangle;overflow=hidden;connectable=0;fillColor=none;top=0;left=0;bottom=0;right=0;align=left;spacingLeft=6;fontStyle=5;" parent="mNH1ytMq66VUiCfq0EZo-2" vertex="1">
          <mxGeometry x="130" width="230" height="30" as="geometry">
            <mxRectangle width="230" height="30" as="alternateBounds" />
          </mxGeometry>
        </mxCell>
        <mxCell id="mNH1ytMq66VUiCfq0EZo-6" value="" style="shape=partialRectangle;collapsible=0;dropTarget=0;pointerEvents=0;fillColor=none;points=[[0,0.5],[1,0.5]];portConstraint=eastwest;top=0;left=0;right=0;bottom=0;" parent="mNH1ytMq66VUiCfq0EZo-1" vertex="1">
          <mxGeometry y="60" width="360" height="30" as="geometry" />
        </mxCell>
        <mxCell id="mNH1ytMq66VUiCfq0EZo-7" value="" style="shape=partialRectangle;overflow=hidden;connectable=0;fillColor=none;top=0;left=0;bottom=0;right=0;" parent="mNH1ytMq66VUiCfq0EZo-6" vertex="1">
          <mxGeometry width="30" height="30" as="geometry">
            <mxRectangle width="30" height="30" as="alternateBounds" />
          </mxGeometry>
        </mxCell>
        <mxCell id="mNH1ytMq66VUiCfq0EZo-8" value="rua" style="shape=partialRectangle;overflow=hidden;connectable=0;fillColor=none;top=0;left=0;bottom=0;right=0;align=left;spacingLeft=6;" parent="mNH1ytMq66VUiCfq0EZo-6" vertex="1">
          <mxGeometry x="30" width="100" height="30" as="geometry">
            <mxRectangle width="100" height="30" as="alternateBounds" />
          </mxGeometry>
        </mxCell>
        <mxCell id="mNH1ytMq66VUiCfq0EZo-9" value="VARCHAR(50) NOT NULL" style="shape=partialRectangle;overflow=hidden;connectable=0;fillColor=none;top=0;left=0;bottom=0;right=0;align=left;spacingLeft=6;" parent="mNH1ytMq66VUiCfq0EZo-6" vertex="1">
          <mxGeometry x="130" width="230" height="30" as="geometry">
            <mxRectangle width="230" height="30" as="alternateBounds" />
          </mxGeometry>
        </mxCell>
        <mxCell id="mNH1ytMq66VUiCfq0EZo-10" value="" style="shape=partialRectangle;collapsible=0;dropTarget=0;pointerEvents=0;fillColor=none;points=[[0,0.5],[1,0.5]];portConstraint=eastwest;top=0;left=0;right=0;bottom=0;" parent="mNH1ytMq66VUiCfq0EZo-1" vertex="1">
          <mxGeometry y="90" width="360" height="30" as="geometry" />
        </mxCell>
        <mxCell id="mNH1ytMq66VUiCfq0EZo-11" value="" style="shape=partialRectangle;overflow=hidden;connectable=0;fillColor=none;top=0;left=0;bottom=0;right=0;" parent="mNH1ytMq66VUiCfq0EZo-10" vertex="1">
          <mxGeometry width="30" height="30" as="geometry">
            <mxRectangle width="30" height="30" as="alternateBounds" />
          </mxGeometry>
        </mxCell>
        <mxCell id="mNH1ytMq66VUiCfq0EZo-12" value="numero" style="shape=partialRectangle;overflow=hidden;connectable=0;fillColor=none;top=0;left=0;bottom=0;right=0;align=left;spacingLeft=6;" parent="mNH1ytMq66VUiCfq0EZo-10" vertex="1">
          <mxGeometry x="30" width="100" height="30" as="geometry">
            <mxRectangle width="100" height="30" as="alternateBounds" />
          </mxGeometry>
        </mxCell>
        <mxCell id="mNH1ytMq66VUiCfq0EZo-13" value="VARCHAR(5) NOT NULL" style="shape=partialRectangle;overflow=hidden;connectable=0;fillColor=none;top=0;left=0;bottom=0;right=0;align=left;spacingLeft=6;" parent="mNH1ytMq66VUiCfq0EZo-10" vertex="1">
          <mxGeometry x="130" width="230" height="30" as="geometry">
            <mxRectangle width="230" height="30" as="alternateBounds" />
          </mxGeometry>
        </mxCell>
        <mxCell id="mNH1ytMq66VUiCfq0EZo-14" value="" style="shape=partialRectangle;collapsible=0;dropTarget=0;pointerEvents=0;fillColor=none;points=[[0,0.5],[1,0.5]];portConstraint=eastwest;top=0;left=0;right=0;bottom=0;" parent="mNH1ytMq66VUiCfq0EZo-1" vertex="1">
          <mxGeometry y="120" width="360" height="30" as="geometry" />
        </mxCell>
        <mxCell id="mNH1ytMq66VUiCfq0EZo-15" value="" style="shape=partialRectangle;overflow=hidden;connectable=0;fillColor=none;top=0;left=0;bottom=0;right=0;" parent="mNH1ytMq66VUiCfq0EZo-14" vertex="1">
          <mxGeometry width="30" height="30" as="geometry">
            <mxRectangle width="30" height="30" as="alternateBounds" />
          </mxGeometry>
        </mxCell>
        <mxCell id="mNH1ytMq66VUiCfq0EZo-16" value="cep" style="shape=partialRectangle;overflow=hidden;connectable=0;fillColor=none;top=0;left=0;bottom=0;right=0;align=left;spacingLeft=6;" parent="mNH1ytMq66VUiCfq0EZo-14" vertex="1">
          <mxGeometry x="30" width="100" height="30" as="geometry">
            <mxRectangle width="100" height="30" as="alternateBounds" />
          </mxGeometry>
        </mxCell>
        <mxCell id="mNH1ytMq66VUiCfq0EZo-17" value="VARCHAR(8) NOT NULL" style="shape=partialRectangle;overflow=hidden;connectable=0;fillColor=none;top=0;left=0;bottom=0;right=0;align=left;spacingLeft=6;" parent="mNH1ytMq66VUiCfq0EZo-14" vertex="1">
          <mxGeometry x="130" width="230" height="30" as="geometry">
            <mxRectangle width="230" height="30" as="alternateBounds" />
          </mxGeometry>
        </mxCell>
        <mxCell id="mNH1ytMq66VUiCfq0EZo-22" style="edgeStyle=orthogonalEdgeStyle;rounded=0;orthogonalLoop=1;jettySize=auto;html=1;endArrow=ERone;endFill=0;startArrow=ERone;startFill=0;" parent="1" source="mNH1ytMq66VUiCfq0EZo-2" target="mNH1ytMq66VUiCfq0EZo-64" edge="1">
          <mxGeometry relative="1" as="geometry">
            <Array as="points">
              <mxPoint x="380" y="-940" />
              <mxPoint x="380" y="-740" />
            </Array>
          </mxGeometry>
        </mxCell>
        <mxCell id="mNH1ytMq66VUiCfq0EZo-24" value="Alergias" style="shape=table;startSize=30;container=1;collapsible=1;childLayout=tableLayout;fixedRows=1;rowLines=0;fontStyle=1;align=center;resizeLast=1;gradientColor=#CCE5FF;swimlaneFillColor=default;gradientDirection=south;rounded=1;shadow=1;" parent="1" vertex="1">
          <mxGeometry x="-960" y="-600" width="360" height="90" as="geometry" />
        </mxCell>
        <mxCell id="mNH1ytMq66VUiCfq0EZo-25" value="" style="shape=partialRectangle;collapsible=0;dropTarget=0;pointerEvents=0;fillColor=none;points=[[0,0.5],[1,0.5]];portConstraint=eastwest;top=0;left=0;right=0;bottom=1;" parent="mNH1ytMq66VUiCfq0EZo-24" vertex="1">
          <mxGeometry y="30" width="360" height="30" as="geometry" />
        </mxCell>
        <mxCell id="mNH1ytMq66VUiCfq0EZo-26" value="PK" style="shape=partialRectangle;overflow=hidden;connectable=0;fillColor=none;top=0;left=0;bottom=0;right=0;fontStyle=1;" parent="mNH1ytMq66VUiCfq0EZo-25" vertex="1">
          <mxGeometry width="30" height="30" as="geometry">
            <mxRectangle width="30" height="30" as="alternateBounds" />
          </mxGeometry>
        </mxCell>
        <mxCell id="mNH1ytMq66VUiCfq0EZo-27" value="id" style="shape=partialRectangle;overflow=hidden;connectable=0;fillColor=none;top=0;left=0;bottom=0;right=0;align=left;spacingLeft=6;fontStyle=5;" parent="mNH1ytMq66VUiCfq0EZo-25" vertex="1">
          <mxGeometry x="30" width="100" height="30" as="geometry">
            <mxRectangle width="100" height="30" as="alternateBounds" />
          </mxGeometry>
        </mxCell>
        <mxCell id="mNH1ytMq66VUiCfq0EZo-28" value="INTEGER PRIMARY KEY IDENTITY" style="shape=partialRectangle;overflow=hidden;connectable=0;fillColor=none;top=0;left=0;bottom=0;right=0;align=left;spacingLeft=6;fontStyle=5;" parent="mNH1ytMq66VUiCfq0EZo-25" vertex="1">
          <mxGeometry x="130" width="230" height="30" as="geometry">
            <mxRectangle width="230" height="30" as="alternateBounds" />
          </mxGeometry>
        </mxCell>
        <mxCell id="mNH1ytMq66VUiCfq0EZo-29" value="" style="shape=partialRectangle;collapsible=0;dropTarget=0;pointerEvents=0;fillColor=none;points=[[0,0.5],[1,0.5]];portConstraint=eastwest;top=0;left=0;right=0;bottom=0;" parent="mNH1ytMq66VUiCfq0EZo-24" vertex="1">
          <mxGeometry y="60" width="360" height="30" as="geometry" />
        </mxCell>
        <mxCell id="mNH1ytMq66VUiCfq0EZo-30" value="" style="shape=partialRectangle;overflow=hidden;connectable=0;fillColor=none;top=0;left=0;bottom=0;right=0;" parent="mNH1ytMq66VUiCfq0EZo-29" vertex="1">
          <mxGeometry width="30" height="30" as="geometry">
            <mxRectangle width="30" height="30" as="alternateBounds" />
          </mxGeometry>
        </mxCell>
        <mxCell id="mNH1ytMq66VUiCfq0EZo-31" value="nome" style="shape=partialRectangle;overflow=hidden;connectable=0;fillColor=none;top=0;left=0;bottom=0;right=0;align=left;spacingLeft=6;" parent="mNH1ytMq66VUiCfq0EZo-29" vertex="1">
          <mxGeometry x="30" width="100" height="30" as="geometry">
            <mxRectangle width="100" height="30" as="alternateBounds" />
          </mxGeometry>
        </mxCell>
        <mxCell id="mNH1ytMq66VUiCfq0EZo-32" value="VARCHAR(50) NOT NULL" style="shape=partialRectangle;overflow=hidden;connectable=0;fillColor=none;top=0;left=0;bottom=0;right=0;align=left;spacingLeft=6;" parent="mNH1ytMq66VUiCfq0EZo-29" vertex="1">
          <mxGeometry x="130" width="230" height="30" as="geometry">
            <mxRectangle width="230" height="30" as="alternateBounds" />
          </mxGeometry>
        </mxCell>
        <mxCell id="mNH1ytMq66VUiCfq0EZo-41" style="edgeStyle=orthogonalEdgeStyle;rounded=0;orthogonalLoop=1;jettySize=auto;html=1;endArrow=ERone;endFill=0;startArrow=ERone;startFill=0;" parent="1" source="h82VSDBW97GAlDBscp8d-51" target="mNH1ytMq66VUiCfq0EZo-25" edge="1">
          <mxGeometry relative="1" as="geometry">
            <Array as="points">
              <mxPoint x="-560" y="-525" />
              <mxPoint x="-560" y="-555" />
            </Array>
          </mxGeometry>
        </mxCell>
        <mxCell id="mNH1ytMq66VUiCfq0EZo-43" value="Pessoa" style="shape=table;startSize=30;container=1;collapsible=1;childLayout=tableLayout;fixedRows=1;rowLines=0;fontStyle=1;align=center;resizeLast=1;gradientColor=#CCE5FF;swimlaneFillColor=default;gradientDirection=south;rounded=1;shadow=1;" parent="1" vertex="1">
          <mxGeometry x="440" y="-990" width="360" height="270" as="geometry" />
        </mxCell>
        <mxCell id="mNH1ytMq66VUiCfq0EZo-44" value="" style="shape=partialRectangle;collapsible=0;dropTarget=0;pointerEvents=0;fillColor=none;points=[[0,0.5],[1,0.5]];portConstraint=eastwest;top=0;left=0;right=0;bottom=1;" parent="mNH1ytMq66VUiCfq0EZo-43" vertex="1">
          <mxGeometry y="30" width="360" height="30" as="geometry" />
        </mxCell>
        <mxCell id="mNH1ytMq66VUiCfq0EZo-45" value="PK" style="shape=partialRectangle;overflow=hidden;connectable=0;fillColor=none;top=0;left=0;bottom=0;right=0;fontStyle=1;" parent="mNH1ytMq66VUiCfq0EZo-44" vertex="1">
          <mxGeometry width="30" height="30" as="geometry">
            <mxRectangle width="30" height="30" as="alternateBounds" />
          </mxGeometry>
        </mxCell>
        <mxCell id="mNH1ytMq66VUiCfq0EZo-46" value="id" style="shape=partialRectangle;overflow=hidden;connectable=0;fillColor=none;top=0;left=0;bottom=0;right=0;align=left;spacingLeft=6;fontStyle=5;" parent="mNH1ytMq66VUiCfq0EZo-44" vertex="1">
          <mxGeometry x="30" width="100" height="30" as="geometry">
            <mxRectangle width="100" height="30" as="alternateBounds" />
          </mxGeometry>
        </mxCell>
        <mxCell id="mNH1ytMq66VUiCfq0EZo-47" value="INTEGER PRIMARY KEY IDENTITY" style="shape=partialRectangle;overflow=hidden;connectable=0;fillColor=none;top=0;left=0;bottom=0;right=0;align=left;spacingLeft=6;fontStyle=5;" parent="mNH1ytMq66VUiCfq0EZo-44" vertex="1">
          <mxGeometry x="130" width="230" height="30" as="geometry">
            <mxRectangle width="230" height="30" as="alternateBounds" />
          </mxGeometry>
        </mxCell>
        <mxCell id="mNH1ytMq66VUiCfq0EZo-48" value="" style="shape=partialRectangle;collapsible=0;dropTarget=0;pointerEvents=0;fillColor=none;points=[[0,0.5],[1,0.5]];portConstraint=eastwest;top=0;left=0;right=0;bottom=0;" parent="mNH1ytMq66VUiCfq0EZo-43" vertex="1">
          <mxGeometry y="60" width="360" height="30" as="geometry" />
        </mxCell>
        <mxCell id="mNH1ytMq66VUiCfq0EZo-49" value="" style="shape=partialRectangle;overflow=hidden;connectable=0;fillColor=none;top=0;left=0;bottom=0;right=0;" parent="mNH1ytMq66VUiCfq0EZo-48" vertex="1">
          <mxGeometry width="30" height="30" as="geometry">
            <mxRectangle width="30" height="30" as="alternateBounds" />
          </mxGeometry>
        </mxCell>
        <mxCell id="mNH1ytMq66VUiCfq0EZo-50" value="nome " style="shape=partialRectangle;overflow=hidden;connectable=0;fillColor=none;top=0;left=0;bottom=0;right=0;align=left;spacingLeft=6;" parent="mNH1ytMq66VUiCfq0EZo-48" vertex="1">
          <mxGeometry x="30" width="100" height="30" as="geometry">
            <mxRectangle width="100" height="30" as="alternateBounds" />
          </mxGeometry>
        </mxCell>
        <mxCell id="mNH1ytMq66VUiCfq0EZo-51" value="VARCHAR(100) NOT NULL" style="shape=partialRectangle;overflow=hidden;connectable=0;fillColor=none;top=0;left=0;bottom=0;right=0;align=left;spacingLeft=6;" parent="mNH1ytMq66VUiCfq0EZo-48" vertex="1">
          <mxGeometry x="130" width="230" height="30" as="geometry">
            <mxRectangle width="230" height="30" as="alternateBounds" />
          </mxGeometry>
        </mxCell>
        <mxCell id="mNH1ytMq66VUiCfq0EZo-68" value="" style="shape=partialRectangle;collapsible=0;dropTarget=0;pointerEvents=0;fillColor=none;points=[[0,0.5],[1,0.5]];portConstraint=eastwest;top=0;left=0;right=0;bottom=0;" parent="mNH1ytMq66VUiCfq0EZo-43" vertex="1">
          <mxGeometry y="90" width="360" height="30" as="geometry" />
        </mxCell>
        <mxCell id="mNH1ytMq66VUiCfq0EZo-69" value="" style="shape=partialRectangle;overflow=hidden;connectable=0;fillColor=none;top=0;left=0;bottom=0;right=0;" parent="mNH1ytMq66VUiCfq0EZo-68" vertex="1">
          <mxGeometry width="30" height="30" as="geometry">
            <mxRectangle width="30" height="30" as="alternateBounds" />
          </mxGeometry>
        </mxCell>
        <mxCell id="mNH1ytMq66VUiCfq0EZo-70" value="cpf" style="shape=partialRectangle;overflow=hidden;connectable=0;fillColor=none;top=0;left=0;bottom=0;right=0;align=left;spacingLeft=6;" parent="mNH1ytMq66VUiCfq0EZo-68" vertex="1">
          <mxGeometry x="30" width="100" height="30" as="geometry">
            <mxRectangle width="100" height="30" as="alternateBounds" />
          </mxGeometry>
        </mxCell>
        <mxCell id="mNH1ytMq66VUiCfq0EZo-71" value="VARCHAR(11) NOT NULL" style="shape=partialRectangle;overflow=hidden;connectable=0;fillColor=none;top=0;left=0;bottom=0;right=0;align=left;spacingLeft=6;" parent="mNH1ytMq66VUiCfq0EZo-68" vertex="1">
          <mxGeometry x="130" width="230" height="30" as="geometry">
            <mxRectangle width="230" height="30" as="alternateBounds" />
          </mxGeometry>
        </mxCell>
        <mxCell id="mNH1ytMq66VUiCfq0EZo-56" value="" style="shape=partialRectangle;collapsible=0;dropTarget=0;pointerEvents=0;fillColor=none;points=[[0,0.5],[1,0.5]];portConstraint=eastwest;top=0;left=0;right=0;bottom=0;" parent="mNH1ytMq66VUiCfq0EZo-43" vertex="1">
          <mxGeometry y="120" width="360" height="30" as="geometry" />
        </mxCell>
        <mxCell id="mNH1ytMq66VUiCfq0EZo-57" value="" style="shape=partialRectangle;overflow=hidden;connectable=0;fillColor=none;top=0;left=0;bottom=0;right=0;" parent="mNH1ytMq66VUiCfq0EZo-56" vertex="1">
          <mxGeometry width="30" height="30" as="geometry">
            <mxRectangle width="30" height="30" as="alternateBounds" />
          </mxGeometry>
        </mxCell>
        <mxCell id="mNH1ytMq66VUiCfq0EZo-58" value="data_nascimento" style="shape=partialRectangle;overflow=hidden;connectable=0;fillColor=none;top=0;left=0;bottom=0;right=0;align=left;spacingLeft=6;" parent="mNH1ytMq66VUiCfq0EZo-56" vertex="1">
          <mxGeometry x="30" width="100" height="30" as="geometry">
            <mxRectangle width="100" height="30" as="alternateBounds" />
          </mxGeometry>
        </mxCell>
        <mxCell id="mNH1ytMq66VUiCfq0EZo-59" value="DATEONLY NOT NULL" style="shape=partialRectangle;overflow=hidden;connectable=0;fillColor=none;top=0;left=0;bottom=0;right=0;align=left;spacingLeft=6;" parent="mNH1ytMq66VUiCfq0EZo-56" vertex="1">
          <mxGeometry x="130" width="230" height="30" as="geometry">
            <mxRectangle width="230" height="30" as="alternateBounds" />
          </mxGeometry>
        </mxCell>
        <mxCell id="mNH1ytMq66VUiCfq0EZo-60" value="" style="shape=partialRectangle;collapsible=0;dropTarget=0;pointerEvents=0;fillColor=none;points=[[0,0.5],[1,0.5]];portConstraint=eastwest;top=0;left=0;right=0;bottom=0;" parent="mNH1ytMq66VUiCfq0EZo-43" vertex="1">
          <mxGeometry y="150" width="360" height="30" as="geometry" />
        </mxCell>
        <mxCell id="mNH1ytMq66VUiCfq0EZo-61" value="" style="shape=partialRectangle;overflow=hidden;connectable=0;fillColor=none;top=0;left=0;bottom=0;right=0;" parent="mNH1ytMq66VUiCfq0EZo-60" vertex="1">
          <mxGeometry width="30" height="30" as="geometry">
            <mxRectangle width="30" height="30" as="alternateBounds" />
          </mxGeometry>
        </mxCell>
        <mxCell id="mNH1ytMq66VUiCfq0EZo-62" value="email" style="shape=partialRectangle;overflow=hidden;connectable=0;fillColor=none;top=0;left=0;bottom=0;right=0;align=left;spacingLeft=6;" parent="mNH1ytMq66VUiCfq0EZo-60" vertex="1">
          <mxGeometry x="30" width="100" height="30" as="geometry">
            <mxRectangle width="100" height="30" as="alternateBounds" />
          </mxGeometry>
        </mxCell>
        <mxCell id="mNH1ytMq66VUiCfq0EZo-63" value="VARCHAR(100) NOT NULL" style="shape=partialRectangle;overflow=hidden;connectable=0;fillColor=none;top=0;left=0;bottom=0;right=0;align=left;spacingLeft=6;" parent="mNH1ytMq66VUiCfq0EZo-60" vertex="1">
          <mxGeometry x="130" width="230" height="30" as="geometry">
            <mxRectangle width="230" height="30" as="alternateBounds" />
          </mxGeometry>
        </mxCell>
        <mxCell id="mNH1ytMq66VUiCfq0EZo-52" value="" style="shape=partialRectangle;collapsible=0;dropTarget=0;pointerEvents=0;fillColor=none;points=[[0,0.5],[1,0.5]];portConstraint=eastwest;top=0;left=0;right=0;bottom=0;" parent="mNH1ytMq66VUiCfq0EZo-43" vertex="1">
          <mxGeometry y="180" width="360" height="30" as="geometry" />
        </mxCell>
        <mxCell id="mNH1ytMq66VUiCfq0EZo-53" value="FK" style="shape=partialRectangle;overflow=hidden;connectable=0;fillColor=none;top=0;left=0;bottom=0;right=0;" parent="mNH1ytMq66VUiCfq0EZo-52" vertex="1">
          <mxGeometry width="30" height="30" as="geometry">
            <mxRectangle width="30" height="30" as="alternateBounds" />
          </mxGeometry>
        </mxCell>
        <mxCell id="mNH1ytMq66VUiCfq0EZo-54" value="tipo_sanguineo" style="shape=partialRectangle;overflow=hidden;connectable=0;fillColor=none;top=0;left=0;bottom=0;right=0;align=left;spacingLeft=6;" parent="mNH1ytMq66VUiCfq0EZo-52" vertex="1">
          <mxGeometry x="30" width="100" height="30" as="geometry">
            <mxRectangle width="100" height="30" as="alternateBounds" />
          </mxGeometry>
        </mxCell>
        <mxCell id="mNH1ytMq66VUiCfq0EZo-55" value="INTEGER" style="shape=partialRectangle;overflow=hidden;connectable=0;fillColor=none;top=0;left=0;bottom=0;right=0;align=left;spacingLeft=6;" parent="mNH1ytMq66VUiCfq0EZo-52" vertex="1">
          <mxGeometry x="130" width="230" height="30" as="geometry">
            <mxRectangle width="230" height="30" as="alternateBounds" />
          </mxGeometry>
        </mxCell>
        <mxCell id="ZPM3V8VGhVody_l9zxSt-10" value="" style="shape=partialRectangle;collapsible=0;dropTarget=0;pointerEvents=0;fillColor=none;points=[[0,0.5],[1,0.5]];portConstraint=eastwest;top=0;left=0;right=0;bottom=0;" parent="mNH1ytMq66VUiCfq0EZo-43" vertex="1">
          <mxGeometry y="210" width="360" height="30" as="geometry" />
        </mxCell>
        <mxCell id="ZPM3V8VGhVody_l9zxSt-11" value="FK" style="shape=partialRectangle;overflow=hidden;connectable=0;fillColor=none;top=0;left=0;bottom=0;right=0;" parent="ZPM3V8VGhVody_l9zxSt-10" vertex="1">
          <mxGeometry width="30" height="30" as="geometry">
            <mxRectangle width="30" height="30" as="alternateBounds" />
          </mxGeometry>
        </mxCell>
        <mxCell id="ZPM3V8VGhVody_l9zxSt-12" value="genero" style="shape=partialRectangle;overflow=hidden;connectable=0;fillColor=none;top=0;left=0;bottom=0;right=0;align=left;spacingLeft=6;" parent="ZPM3V8VGhVody_l9zxSt-10" vertex="1">
          <mxGeometry x="30" width="100" height="30" as="geometry">
            <mxRectangle width="100" height="30" as="alternateBounds" />
          </mxGeometry>
        </mxCell>
        <mxCell id="ZPM3V8VGhVody_l9zxSt-13" value="INTEGER NOT NULL" style="shape=partialRectangle;overflow=hidden;connectable=0;fillColor=none;top=0;left=0;bottom=0;right=0;align=left;spacingLeft=6;" parent="ZPM3V8VGhVody_l9zxSt-10" vertex="1">
          <mxGeometry x="130" width="230" height="30" as="geometry">
            <mxRectangle width="230" height="30" as="alternateBounds" />
          </mxGeometry>
        </mxCell>
        <mxCell id="mNH1ytMq66VUiCfq0EZo-64" value="" style="shape=partialRectangle;collapsible=0;dropTarget=0;pointerEvents=0;fillColor=none;points=[[0,0.5],[1,0.5]];portConstraint=eastwest;top=0;left=0;right=0;bottom=0;" parent="mNH1ytMq66VUiCfq0EZo-43" vertex="1">
          <mxGeometry y="240" width="360" height="30" as="geometry" />
        </mxCell>
        <mxCell id="mNH1ytMq66VUiCfq0EZo-65" value="FK" style="shape=partialRectangle;overflow=hidden;connectable=0;fillColor=none;top=0;left=0;bottom=0;right=0;" parent="mNH1ytMq66VUiCfq0EZo-64" vertex="1">
          <mxGeometry width="30" height="30" as="geometry">
            <mxRectangle width="30" height="30" as="alternateBounds" />
          </mxGeometry>
        </mxCell>
        <mxCell id="mNH1ytMq66VUiCfq0EZo-66" value="endereco" style="shape=partialRectangle;overflow=hidden;connectable=0;fillColor=none;top=0;left=0;bottom=0;right=0;align=left;spacingLeft=6;" parent="mNH1ytMq66VUiCfq0EZo-64" vertex="1">
          <mxGeometry x="30" width="100" height="30" as="geometry">
            <mxRectangle width="100" height="30" as="alternateBounds" />
          </mxGeometry>
        </mxCell>
        <mxCell id="mNH1ytMq66VUiCfq0EZo-67" value="INTEGER NOT NULL" style="shape=partialRectangle;overflow=hidden;connectable=0;fillColor=none;top=0;left=0;bottom=0;right=0;align=left;spacingLeft=6;" parent="mNH1ytMq66VUiCfq0EZo-64" vertex="1">
          <mxGeometry x="130" width="230" height="30" as="geometry">
            <mxRectangle width="230" height="30" as="alternateBounds" />
          </mxGeometry>
        </mxCell>
        <mxCell id="mNH1ytMq66VUiCfq0EZo-72" style="edgeStyle=orthogonalEdgeStyle;rounded=0;orthogonalLoop=1;jettySize=auto;html=1;startArrow=ERone;startFill=0;endArrow=ERone;endFill=0;" parent="1" source="C-vyLk0tnHw3VtMMgP7b-27" target="mNH1ytMq66VUiCfq0EZo-44" edge="1">
          <mxGeometry relative="1" as="geometry">
            <Array as="points">
              <mxPoint x="390" y="-500" />
              <mxPoint x="390" y="-950" />
            </Array>
          </mxGeometry>
        </mxCell>
        <mxCell id="mNH1ytMq66VUiCfq0EZo-77" style="edgeStyle=orthogonalEdgeStyle;rounded=0;orthogonalLoop=1;jettySize=auto;html=1;endArrow=ERone;endFill=0;startArrow=ERone;startFill=0;" parent="1" source="h82VSDBW97GAlDBscp8d-160" target="mNH1ytMq66VUiCfq0EZo-44" edge="1">
          <mxGeometry relative="1" as="geometry">
            <Array as="points">
              <mxPoint x="1310" y="-525" />
              <mxPoint x="1310" y="-670" />
              <mxPoint x="820" y="-670" />
              <mxPoint x="820" y="-945" />
            </Array>
          </mxGeometry>
        </mxCell>
        <mxCell id="mNH1ytMq66VUiCfq0EZo-83" value="Genero" style="shape=table;startSize=30;container=1;collapsible=1;childLayout=tableLayout;fixedRows=1;rowLines=0;fontStyle=1;align=center;resizeLast=1;gradientColor=#CCE5FF;swimlaneFillColor=default;gradientDirection=south;rounded=1;shadow=1;" parent="1" vertex="1">
          <mxGeometry x="440" y="-1140" width="360" height="90" as="geometry" />
        </mxCell>
        <mxCell id="mNH1ytMq66VUiCfq0EZo-84" value="" style="shape=partialRectangle;collapsible=0;dropTarget=0;pointerEvents=0;fillColor=none;points=[[0,0.5],[1,0.5]];portConstraint=eastwest;top=0;left=0;right=0;bottom=1;" parent="mNH1ytMq66VUiCfq0EZo-83" vertex="1">
          <mxGeometry y="30" width="360" height="30" as="geometry" />
        </mxCell>
        <mxCell id="mNH1ytMq66VUiCfq0EZo-85" value="PK" style="shape=partialRectangle;overflow=hidden;connectable=0;fillColor=none;top=0;left=0;bottom=0;right=0;fontStyle=1;" parent="mNH1ytMq66VUiCfq0EZo-84" vertex="1">
          <mxGeometry width="30" height="30" as="geometry">
            <mxRectangle width="30" height="30" as="alternateBounds" />
          </mxGeometry>
        </mxCell>
        <mxCell id="mNH1ytMq66VUiCfq0EZo-86" value="id" style="shape=partialRectangle;overflow=hidden;connectable=0;fillColor=none;top=0;left=0;bottom=0;right=0;align=left;spacingLeft=6;fontStyle=5;" parent="mNH1ytMq66VUiCfq0EZo-84" vertex="1">
          <mxGeometry x="30" width="100" height="30" as="geometry">
            <mxRectangle width="100" height="30" as="alternateBounds" />
          </mxGeometry>
        </mxCell>
        <mxCell id="mNH1ytMq66VUiCfq0EZo-87" value="INTEGER PRIMARY KEY IDENTITY" style="shape=partialRectangle;overflow=hidden;connectable=0;fillColor=none;top=0;left=0;bottom=0;right=0;align=left;spacingLeft=6;fontStyle=5;" parent="mNH1ytMq66VUiCfq0EZo-84" vertex="1">
          <mxGeometry x="130" width="230" height="30" as="geometry">
            <mxRectangle width="230" height="30" as="alternateBounds" />
          </mxGeometry>
        </mxCell>
        <mxCell id="mNH1ytMq66VUiCfq0EZo-88" value="" style="shape=partialRectangle;collapsible=0;dropTarget=0;pointerEvents=0;fillColor=none;points=[[0,0.5],[1,0.5]];portConstraint=eastwest;top=0;left=0;right=0;bottom=0;" parent="mNH1ytMq66VUiCfq0EZo-83" vertex="1">
          <mxGeometry y="60" width="360" height="30" as="geometry" />
        </mxCell>
        <mxCell id="mNH1ytMq66VUiCfq0EZo-89" value="" style="shape=partialRectangle;overflow=hidden;connectable=0;fillColor=none;top=0;left=0;bottom=0;right=0;" parent="mNH1ytMq66VUiCfq0EZo-88" vertex="1">
          <mxGeometry width="30" height="30" as="geometry">
            <mxRectangle width="30" height="30" as="alternateBounds" />
          </mxGeometry>
        </mxCell>
        <mxCell id="mNH1ytMq66VUiCfq0EZo-90" value="nome" style="shape=partialRectangle;overflow=hidden;connectable=0;fillColor=none;top=0;left=0;bottom=0;right=0;align=left;spacingLeft=6;" parent="mNH1ytMq66VUiCfq0EZo-88" vertex="1">
          <mxGeometry x="30" width="100" height="30" as="geometry">
            <mxRectangle width="100" height="30" as="alternateBounds" />
          </mxGeometry>
        </mxCell>
        <mxCell id="mNH1ytMq66VUiCfq0EZo-91" value="VARCHAR(50) NOT NULL" style="shape=partialRectangle;overflow=hidden;connectable=0;fillColor=none;top=0;left=0;bottom=0;right=0;align=left;spacingLeft=6;" parent="mNH1ytMq66VUiCfq0EZo-88" vertex="1">
          <mxGeometry x="130" width="230" height="30" as="geometry">
            <mxRectangle width="230" height="30" as="alternateBounds" />
          </mxGeometry>
        </mxCell>
        <mxCell id="mNH1ytMq66VUiCfq0EZo-104" style="edgeStyle=orthogonalEdgeStyle;rounded=0;orthogonalLoop=1;jettySize=auto;html=1;" parent="1" source="ZPM3V8VGhVody_l9zxSt-10" target="mNH1ytMq66VUiCfq0EZo-84" edge="1">
          <mxGeometry relative="1" as="geometry">
            <Array as="points">
              <mxPoint x="420" y="-765" />
              <mxPoint x="420" y="-1095" />
            </Array>
          </mxGeometry>
        </mxCell>
        <mxCell id="ZPM3V8VGhVody_l9zxSt-1" value="Tipo_Sanguineo" style="shape=table;startSize=30;container=1;collapsible=1;childLayout=tableLayout;fixedRows=1;rowLines=0;fontStyle=1;align=center;resizeLast=1;gradientColor=#CCE5FF;swimlaneFillColor=default;gradientDirection=south;rounded=1;shadow=1;" parent="1" vertex="1">
          <mxGeometry x="880" y="-890" width="360" height="90" as="geometry" />
        </mxCell>
        <mxCell id="ZPM3V8VGhVody_l9zxSt-2" value="" style="shape=partialRectangle;collapsible=0;dropTarget=0;pointerEvents=0;fillColor=none;points=[[0,0.5],[1,0.5]];portConstraint=eastwest;top=0;left=0;right=0;bottom=1;" parent="ZPM3V8VGhVody_l9zxSt-1" vertex="1">
          <mxGeometry y="30" width="360" height="30" as="geometry" />
        </mxCell>
        <mxCell id="ZPM3V8VGhVody_l9zxSt-3" value="PK" style="shape=partialRectangle;overflow=hidden;connectable=0;fillColor=none;top=0;left=0;bottom=0;right=0;fontStyle=1;" parent="ZPM3V8VGhVody_l9zxSt-2" vertex="1">
          <mxGeometry width="30" height="30" as="geometry">
            <mxRectangle width="30" height="30" as="alternateBounds" />
          </mxGeometry>
        </mxCell>
        <mxCell id="ZPM3V8VGhVody_l9zxSt-4" value="id" style="shape=partialRectangle;overflow=hidden;connectable=0;fillColor=none;top=0;left=0;bottom=0;right=0;align=left;spacingLeft=6;fontStyle=5;" parent="ZPM3V8VGhVody_l9zxSt-2" vertex="1">
          <mxGeometry x="30" width="100" height="30" as="geometry">
            <mxRectangle width="100" height="30" as="alternateBounds" />
          </mxGeometry>
        </mxCell>
        <mxCell id="ZPM3V8VGhVody_l9zxSt-5" value="INTEGER PRIMARY KEY IDENTITY" style="shape=partialRectangle;overflow=hidden;connectable=0;fillColor=none;top=0;left=0;bottom=0;right=0;align=left;spacingLeft=6;fontStyle=5;" parent="ZPM3V8VGhVody_l9zxSt-2" vertex="1">
          <mxGeometry x="130" width="230" height="30" as="geometry">
            <mxRectangle width="230" height="30" as="alternateBounds" />
          </mxGeometry>
        </mxCell>
        <mxCell id="ZPM3V8VGhVody_l9zxSt-6" value="" style="shape=partialRectangle;collapsible=0;dropTarget=0;pointerEvents=0;fillColor=none;points=[[0,0.5],[1,0.5]];portConstraint=eastwest;top=0;left=0;right=0;bottom=0;" parent="ZPM3V8VGhVody_l9zxSt-1" vertex="1">
          <mxGeometry y="60" width="360" height="30" as="geometry" />
        </mxCell>
        <mxCell id="ZPM3V8VGhVody_l9zxSt-7" value="" style="shape=partialRectangle;overflow=hidden;connectable=0;fillColor=none;top=0;left=0;bottom=0;right=0;" parent="ZPM3V8VGhVody_l9zxSt-6" vertex="1">
          <mxGeometry width="30" height="30" as="geometry">
            <mxRectangle width="30" height="30" as="alternateBounds" />
          </mxGeometry>
        </mxCell>
        <mxCell id="ZPM3V8VGhVody_l9zxSt-8" value="nome" style="shape=partialRectangle;overflow=hidden;connectable=0;fillColor=none;top=0;left=0;bottom=0;right=0;align=left;spacingLeft=6;" parent="ZPM3V8VGhVody_l9zxSt-6" vertex="1">
          <mxGeometry x="30" width="100" height="30" as="geometry">
            <mxRectangle width="100" height="30" as="alternateBounds" />
          </mxGeometry>
        </mxCell>
        <mxCell id="ZPM3V8VGhVody_l9zxSt-9" value="VARCHAR(50) NOT NULL" style="shape=partialRectangle;overflow=hidden;connectable=0;fillColor=none;top=0;left=0;bottom=0;right=0;align=left;spacingLeft=6;" parent="ZPM3V8VGhVody_l9zxSt-6" vertex="1">
          <mxGeometry x="130" width="230" height="30" as="geometry">
            <mxRectangle width="230" height="30" as="alternateBounds" />
          </mxGeometry>
        </mxCell>
        <mxCell id="ZPM3V8VGhVody_l9zxSt-14" style="edgeStyle=orthogonalEdgeStyle;rounded=0;orthogonalLoop=1;jettySize=auto;html=1;endArrow=ERone;endFill=0;startArrow=ERone;startFill=0;" parent="1" source="mNH1ytMq66VUiCfq0EZo-52" target="ZPM3V8VGhVody_l9zxSt-2" edge="1">
          <mxGeometry relative="1" as="geometry" />
        </mxCell>
        <mxCell id="ZPM3V8VGhVody_l9zxSt-31" value="Sintomas" style="shape=table;startSize=30;container=1;collapsible=1;childLayout=tableLayout;fixedRows=1;rowLines=0;fontStyle=1;align=center;resizeLast=1;gradientColor=#CCE5FF;swimlaneFillColor=default;gradientDirection=south;rounded=1;shadow=1;" parent="1" vertex="1">
          <mxGeometry x="440" width="360" height="90" as="geometry" />
        </mxCell>
        <mxCell id="ZPM3V8VGhVody_l9zxSt-32" value="" style="shape=partialRectangle;collapsible=0;dropTarget=0;pointerEvents=0;fillColor=none;points=[[0,0.5],[1,0.5]];portConstraint=eastwest;top=0;left=0;right=0;bottom=1;" parent="ZPM3V8VGhVody_l9zxSt-31" vertex="1">
          <mxGeometry y="30" width="360" height="30" as="geometry" />
        </mxCell>
        <mxCell id="ZPM3V8VGhVody_l9zxSt-33" value="PK" style="shape=partialRectangle;overflow=hidden;connectable=0;fillColor=none;top=0;left=0;bottom=0;right=0;fontStyle=1;" parent="ZPM3V8VGhVody_l9zxSt-32" vertex="1">
          <mxGeometry width="30" height="30" as="geometry">
            <mxRectangle width="30" height="30" as="alternateBounds" />
          </mxGeometry>
        </mxCell>
        <mxCell id="ZPM3V8VGhVody_l9zxSt-34" value="id" style="shape=partialRectangle;overflow=hidden;connectable=0;fillColor=none;top=0;left=0;bottom=0;right=0;align=left;spacingLeft=6;fontStyle=5;" parent="ZPM3V8VGhVody_l9zxSt-32" vertex="1">
          <mxGeometry x="30" width="100" height="30" as="geometry">
            <mxRectangle width="100" height="30" as="alternateBounds" />
          </mxGeometry>
        </mxCell>
        <mxCell id="ZPM3V8VGhVody_l9zxSt-35" value="INTEGER PRIMARY KEY IDENTITY" style="shape=partialRectangle;overflow=hidden;connectable=0;fillColor=none;top=0;left=0;bottom=0;right=0;align=left;spacingLeft=6;fontStyle=5;" parent="ZPM3V8VGhVody_l9zxSt-32" vertex="1">
          <mxGeometry x="130" width="230" height="30" as="geometry">
            <mxRectangle width="230" height="30" as="alternateBounds" />
          </mxGeometry>
        </mxCell>
        <mxCell id="ZPM3V8VGhVody_l9zxSt-36" value="" style="shape=partialRectangle;collapsible=0;dropTarget=0;pointerEvents=0;fillColor=none;points=[[0,0.5],[1,0.5]];portConstraint=eastwest;top=0;left=0;right=0;bottom=0;" parent="ZPM3V8VGhVody_l9zxSt-31" vertex="1">
          <mxGeometry y="60" width="360" height="30" as="geometry" />
        </mxCell>
        <mxCell id="ZPM3V8VGhVody_l9zxSt-37" value="" style="shape=partialRectangle;overflow=hidden;connectable=0;fillColor=none;top=0;left=0;bottom=0;right=0;" parent="ZPM3V8VGhVody_l9zxSt-36" vertex="1">
          <mxGeometry width="30" height="30" as="geometry">
            <mxRectangle width="30" height="30" as="alternateBounds" />
          </mxGeometry>
        </mxCell>
        <mxCell id="ZPM3V8VGhVody_l9zxSt-38" value="nome" style="shape=partialRectangle;overflow=hidden;connectable=0;fillColor=none;top=0;left=0;bottom=0;right=0;align=left;spacingLeft=6;" parent="ZPM3V8VGhVody_l9zxSt-36" vertex="1">
          <mxGeometry x="30" width="100" height="30" as="geometry">
            <mxRectangle width="100" height="30" as="alternateBounds" />
          </mxGeometry>
        </mxCell>
        <mxCell id="ZPM3V8VGhVody_l9zxSt-39" value="VARCHAR(50) NOT NULL" style="shape=partialRectangle;overflow=hidden;connectable=0;fillColor=none;top=0;left=0;bottom=0;right=0;align=left;spacingLeft=6;" parent="ZPM3V8VGhVody_l9zxSt-36" vertex="1">
          <mxGeometry x="130" width="230" height="30" as="geometry">
            <mxRectangle width="230" height="30" as="alternateBounds" />
          </mxGeometry>
        </mxCell>
        <mxCell id="ZPM3V8VGhVody_l9zxSt-40" value="Consulta_Sintomas_Paciente" style="shape=table;startSize=30;container=1;collapsible=1;childLayout=tableLayout;fixedRows=1;rowLines=0;fontStyle=1;align=center;resizeLast=1;gradientColor=#CCE5FF;swimlaneFillColor=default;gradientDirection=south;rounded=1;shadow=1;" parent="1" vertex="1">
          <mxGeometry x="440" y="-150" width="360" height="120" as="geometry" />
        </mxCell>
        <mxCell id="ZPM3V8VGhVody_l9zxSt-41" value="" style="shape=partialRectangle;collapsible=0;dropTarget=0;pointerEvents=0;fillColor=none;points=[[0,0.5],[1,0.5]];portConstraint=eastwest;top=0;left=0;right=0;bottom=1;" parent="ZPM3V8VGhVody_l9zxSt-40" vertex="1">
          <mxGeometry y="30" width="360" height="30" as="geometry" />
        </mxCell>
        <mxCell id="ZPM3V8VGhVody_l9zxSt-42" value="PK" style="shape=partialRectangle;overflow=hidden;connectable=0;fillColor=none;top=0;left=0;bottom=0;right=0;fontStyle=1;" parent="ZPM3V8VGhVody_l9zxSt-41" vertex="1">
          <mxGeometry width="30" height="30" as="geometry">
            <mxRectangle width="30" height="30" as="alternateBounds" />
          </mxGeometry>
        </mxCell>
        <mxCell id="ZPM3V8VGhVody_l9zxSt-43" value="id" style="shape=partialRectangle;overflow=hidden;connectable=0;fillColor=none;top=0;left=0;bottom=0;right=0;align=left;spacingLeft=6;fontStyle=5;" parent="ZPM3V8VGhVody_l9zxSt-41" vertex="1">
          <mxGeometry x="30" width="100" height="30" as="geometry">
            <mxRectangle width="100" height="30" as="alternateBounds" />
          </mxGeometry>
        </mxCell>
        <mxCell id="ZPM3V8VGhVody_l9zxSt-44" value="INTEGER PRIMARY KEY IDENTITY" style="shape=partialRectangle;overflow=hidden;connectable=0;fillColor=none;top=0;left=0;bottom=0;right=0;align=left;spacingLeft=6;fontStyle=5;" parent="ZPM3V8VGhVody_l9zxSt-41" vertex="1">
          <mxGeometry x="130" width="230" height="30" as="geometry">
            <mxRectangle width="230" height="30" as="alternateBounds" />
          </mxGeometry>
        </mxCell>
        <mxCell id="ZPM3V8VGhVody_l9zxSt-45" value="" style="shape=partialRectangle;collapsible=0;dropTarget=0;pointerEvents=0;fillColor=none;points=[[0,0.5],[1,0.5]];portConstraint=eastwest;top=0;left=0;right=0;bottom=0;" parent="ZPM3V8VGhVody_l9zxSt-40" vertex="1">
          <mxGeometry y="60" width="360" height="30" as="geometry" />
        </mxCell>
        <mxCell id="ZPM3V8VGhVody_l9zxSt-46" value="FK" style="shape=partialRectangle;overflow=hidden;connectable=0;fillColor=none;top=0;left=0;bottom=0;right=0;" parent="ZPM3V8VGhVody_l9zxSt-45" vertex="1">
          <mxGeometry width="30" height="30" as="geometry">
            <mxRectangle width="30" height="30" as="alternateBounds" />
          </mxGeometry>
        </mxCell>
        <mxCell id="ZPM3V8VGhVody_l9zxSt-47" value="consulta" style="shape=partialRectangle;overflow=hidden;connectable=0;fillColor=none;top=0;left=0;bottom=0;right=0;align=left;spacingLeft=6;" parent="ZPM3V8VGhVody_l9zxSt-45" vertex="1">
          <mxGeometry x="30" width="100" height="30" as="geometry">
            <mxRectangle width="100" height="30" as="alternateBounds" />
          </mxGeometry>
        </mxCell>
        <mxCell id="ZPM3V8VGhVody_l9zxSt-48" value="INTEGER NOT NULL" style="shape=partialRectangle;overflow=hidden;connectable=0;fillColor=none;top=0;left=0;bottom=0;right=0;align=left;spacingLeft=6;" parent="ZPM3V8VGhVody_l9zxSt-45" vertex="1">
          <mxGeometry x="130" width="230" height="30" as="geometry">
            <mxRectangle width="230" height="30" as="alternateBounds" />
          </mxGeometry>
        </mxCell>
        <mxCell id="ZPM3V8VGhVody_l9zxSt-49" value="" style="shape=partialRectangle;collapsible=0;dropTarget=0;pointerEvents=0;fillColor=none;points=[[0,0.5],[1,0.5]];portConstraint=eastwest;top=0;left=0;right=0;bottom=0;" parent="ZPM3V8VGhVody_l9zxSt-40" vertex="1">
          <mxGeometry y="90" width="360" height="30" as="geometry" />
        </mxCell>
        <mxCell id="ZPM3V8VGhVody_l9zxSt-50" value="FK" style="shape=partialRectangle;overflow=hidden;connectable=0;fillColor=none;top=0;left=0;bottom=0;right=0;" parent="ZPM3V8VGhVody_l9zxSt-49" vertex="1">
          <mxGeometry width="30" height="30" as="geometry">
            <mxRectangle width="30" height="30" as="alternateBounds" />
          </mxGeometry>
        </mxCell>
        <mxCell id="ZPM3V8VGhVody_l9zxSt-51" value="sintoma" style="shape=partialRectangle;overflow=hidden;connectable=0;fillColor=none;top=0;left=0;bottom=0;right=0;align=left;spacingLeft=6;" parent="ZPM3V8VGhVody_l9zxSt-49" vertex="1">
          <mxGeometry x="30" width="100" height="30" as="geometry">
            <mxRectangle width="100" height="30" as="alternateBounds" />
          </mxGeometry>
        </mxCell>
        <mxCell id="ZPM3V8VGhVody_l9zxSt-52" value="INTEGER NOT NULL" style="shape=partialRectangle;overflow=hidden;connectable=0;fillColor=none;top=0;left=0;bottom=0;right=0;align=left;spacingLeft=6;" parent="ZPM3V8VGhVody_l9zxSt-49" vertex="1">
          <mxGeometry x="130" width="230" height="30" as="geometry">
            <mxRectangle width="230" height="30" as="alternateBounds" />
          </mxGeometry>
        </mxCell>
        <mxCell id="ZPM3V8VGhVody_l9zxSt-53" style="edgeStyle=orthogonalEdgeStyle;rounded=0;orthogonalLoop=1;jettySize=auto;html=1;startArrow=ERone;startFill=0;endArrow=ERone;endFill=0;" parent="1" source="ZPM3V8VGhVody_l9zxSt-45" target="h82VSDBW97GAlDBscp8d-73" edge="1">
          <mxGeometry relative="1" as="geometry">
            <Array as="points">
              <mxPoint x="420" y="-75" />
              <mxPoint x="420" y="-385" />
            </Array>
          </mxGeometry>
        </mxCell>
        <mxCell id="ZPM3V8VGhVody_l9zxSt-54" style="edgeStyle=orthogonalEdgeStyle;rounded=0;orthogonalLoop=1;jettySize=auto;html=1;endArrow=ERone;endFill=0;startArrow=ERone;startFill=0;" parent="1" source="ZPM3V8VGhVody_l9zxSt-49" target="ZPM3V8VGhVody_l9zxSt-32" edge="1">
          <mxGeometry relative="1" as="geometry">
            <Array as="points">
              <mxPoint x="430" y="-45" />
              <mxPoint x="430" y="45" />
            </Array>
          </mxGeometry>
        </mxCell>
      </root>
    </mxGraphModel>
  </diagram>
  <diagram name="Inicio Projeto Final" id="9mEyxnqzzSwWcsHwIYMb">
    <mxGraphModel dx="2133" dy="1680" grid="1" gridSize="10" guides="1" tooltips="1" connect="1" arrows="1" fold="1" page="0" pageScale="1" pageWidth="1169" pageHeight="827" background="none" math="0" shadow="1" extFonts="Permanent Marker^https://fonts.googleapis.com/css?family=Permanent+Marker">
      <root>
        <mxCell id="hjnhnVCfy0rVlfzwF7n2-0" />
        <mxCell id="hjnhnVCfy0rVlfzwF7n2-1" parent="hjnhnVCfy0rVlfzwF7n2-0" />
        <mxCell id="hjnhnVCfy0rVlfzwF7n2-5" value="" style="rounded=1;whiteSpace=wrap;html=1;strokeColor=default;shadow=1;fillColor=#dae8fc;" vertex="1" parent="hjnhnVCfy0rVlfzwF7n2-1">
          <mxGeometry x="400" y="-680" width="440" height="600" as="geometry" />
        </mxCell>
        <mxCell id="hjnhnVCfy0rVlfzwF7n2-6" value="Paciente" style="shape=table;startSize=30;container=1;collapsible=1;childLayout=tableLayout;fixedRows=1;rowLines=0;fontStyle=1;align=center;resizeLast=1;gradientColor=#CCE5FF;swimlaneFillColor=default;gradientDirection=south;rounded=1;shadow=1;strokeColor=default;" vertex="1" parent="hjnhnVCfy0rVlfzwF7n2-1">
          <mxGeometry x="-3" y="-180" width="360" height="120" as="geometry" />
        </mxCell>
        <mxCell id="hjnhnVCfy0rVlfzwF7n2-7" value="" style="shape=partialRectangle;collapsible=0;dropTarget=0;pointerEvents=0;fillColor=none;points=[[0,0.5],[1,0.5]];portConstraint=eastwest;top=0;left=0;right=0;bottom=1;strokeColor=default;" vertex="1" parent="hjnhnVCfy0rVlfzwF7n2-6">
          <mxGeometry y="30" width="360" height="30" as="geometry" />
        </mxCell>
        <mxCell id="hjnhnVCfy0rVlfzwF7n2-8" value="PK" style="shape=partialRectangle;overflow=hidden;connectable=0;fillColor=none;top=0;left=0;bottom=0;right=0;fontStyle=1;strokeColor=default;" vertex="1" parent="hjnhnVCfy0rVlfzwF7n2-7">
          <mxGeometry width="30" height="30" as="geometry">
            <mxRectangle width="30" height="30" as="alternateBounds" />
          </mxGeometry>
        </mxCell>
        <mxCell id="hjnhnVCfy0rVlfzwF7n2-9" value="id" style="shape=partialRectangle;overflow=hidden;connectable=0;fillColor=none;top=0;left=0;bottom=0;right=0;align=left;spacingLeft=6;fontStyle=5;strokeColor=default;" vertex="1" parent="hjnhnVCfy0rVlfzwF7n2-7">
          <mxGeometry x="30" width="100" height="30" as="geometry">
            <mxRectangle width="100" height="30" as="alternateBounds" />
          </mxGeometry>
        </mxCell>
        <mxCell id="hjnhnVCfy0rVlfzwF7n2-10" value="INTEGER PRIMARY KEY IDENTITY" style="shape=partialRectangle;overflow=hidden;connectable=0;fillColor=none;top=0;left=0;bottom=0;right=0;align=left;spacingLeft=6;fontStyle=5;strokeColor=default;" vertex="1" parent="hjnhnVCfy0rVlfzwF7n2-7">
          <mxGeometry x="130" width="230" height="30" as="geometry">
            <mxRectangle width="230" height="30" as="alternateBounds" />
          </mxGeometry>
        </mxCell>
        <mxCell id="hjnhnVCfy0rVlfzwF7n2-11" value="" style="shape=partialRectangle;collapsible=0;dropTarget=0;pointerEvents=0;fillColor=none;points=[[0,0.5],[1,0.5]];portConstraint=eastwest;top=0;left=0;right=0;bottom=0;strokeColor=default;" vertex="1" parent="hjnhnVCfy0rVlfzwF7n2-6">
          <mxGeometry y="60" width="360" height="30" as="geometry" />
        </mxCell>
        <mxCell id="hjnhnVCfy0rVlfzwF7n2-12" value="" style="shape=partialRectangle;overflow=hidden;connectable=0;fillColor=none;top=0;left=0;bottom=0;right=0;strokeColor=default;" vertex="1" parent="hjnhnVCfy0rVlfzwF7n2-11">
          <mxGeometry width="30" height="30" as="geometry">
            <mxRectangle width="30" height="30" as="alternateBounds" />
          </mxGeometry>
        </mxCell>
        <mxCell id="hjnhnVCfy0rVlfzwF7n2-13" value="observacao" style="shape=partialRectangle;overflow=hidden;connectable=0;fillColor=none;top=0;left=0;bottom=0;right=0;align=left;spacingLeft=6;strokeColor=default;" vertex="1" parent="hjnhnVCfy0rVlfzwF7n2-11">
          <mxGeometry x="30" width="100" height="30" as="geometry">
            <mxRectangle width="100" height="30" as="alternateBounds" />
          </mxGeometry>
        </mxCell>
        <mxCell id="hjnhnVCfy0rVlfzwF7n2-14" value="TEXT" style="shape=partialRectangle;overflow=hidden;connectable=0;fillColor=none;top=0;left=0;bottom=0;right=0;align=left;spacingLeft=6;strokeColor=default;" vertex="1" parent="hjnhnVCfy0rVlfzwF7n2-11">
          <mxGeometry x="130" width="230" height="30" as="geometry">
            <mxRectangle width="230" height="30" as="alternateBounds" />
          </mxGeometry>
        </mxCell>
        <mxCell id="hjnhnVCfy0rVlfzwF7n2-15" value="" style="shape=partialRectangle;collapsible=0;dropTarget=0;pointerEvents=0;fillColor=none;points=[[0,0.5],[1,0.5]];portConstraint=eastwest;top=0;left=0;right=0;bottom=0;strokeColor=default;" vertex="1" parent="hjnhnVCfy0rVlfzwF7n2-6">
          <mxGeometry y="90" width="360" height="30" as="geometry" />
        </mxCell>
        <mxCell id="hjnhnVCfy0rVlfzwF7n2-16" value="FK" style="shape=partialRectangle;overflow=hidden;connectable=0;fillColor=none;top=0;left=0;bottom=0;right=0;strokeColor=default;" vertex="1" parent="hjnhnVCfy0rVlfzwF7n2-15">
          <mxGeometry width="30" height="30" as="geometry">
            <mxRectangle width="30" height="30" as="alternateBounds" />
          </mxGeometry>
        </mxCell>
        <mxCell id="hjnhnVCfy0rVlfzwF7n2-17" value="pessoa" style="shape=partialRectangle;overflow=hidden;connectable=0;fillColor=none;top=0;left=0;bottom=0;right=0;align=left;spacingLeft=6;strokeColor=default;" vertex="1" parent="hjnhnVCfy0rVlfzwF7n2-15">
          <mxGeometry x="30" width="100" height="30" as="geometry">
            <mxRectangle width="100" height="30" as="alternateBounds" />
          </mxGeometry>
        </mxCell>
        <mxCell id="hjnhnVCfy0rVlfzwF7n2-18" value="INTEGER NOT NULL" style="shape=partialRectangle;overflow=hidden;connectable=0;fillColor=none;top=0;left=0;bottom=0;right=0;align=left;spacingLeft=6;strokeColor=default;" vertex="1" parent="hjnhnVCfy0rVlfzwF7n2-15">
          <mxGeometry x="130" width="230" height="30" as="geometry">
            <mxRectangle width="230" height="30" as="alternateBounds" />
          </mxGeometry>
        </mxCell>
        <mxCell id="hjnhnVCfy0rVlfzwF7n2-59" value="Consulta" style="shape=table;startSize=30;container=1;collapsible=1;childLayout=tableLayout;fixedRows=1;rowLines=0;fontStyle=1;align=center;resizeLast=1;gradientColor=#CCE5FF;swimlaneFillColor=default;gradientDirection=south;rounded=1;shadow=1;strokeColor=default;" vertex="1" parent="hjnhnVCfy0rVlfzwF7n2-1">
          <mxGeometry x="440" y="-320" width="360" height="210" as="geometry" />
        </mxCell>
        <mxCell id="hjnhnVCfy0rVlfzwF7n2-60" value="" style="shape=partialRectangle;collapsible=0;dropTarget=0;pointerEvents=0;fillColor=none;points=[[0,0.5],[1,0.5]];portConstraint=eastwest;top=0;left=0;right=0;bottom=1;strokeColor=default;" vertex="1" parent="hjnhnVCfy0rVlfzwF7n2-59">
          <mxGeometry y="30" width="360" height="30" as="geometry" />
        </mxCell>
        <mxCell id="hjnhnVCfy0rVlfzwF7n2-61" value="PK" style="shape=partialRectangle;overflow=hidden;connectable=0;fillColor=none;top=0;left=0;bottom=0;right=0;fontStyle=1;strokeColor=default;" vertex="1" parent="hjnhnVCfy0rVlfzwF7n2-60">
          <mxGeometry width="30" height="30" as="geometry">
            <mxRectangle width="30" height="30" as="alternateBounds" />
          </mxGeometry>
        </mxCell>
        <mxCell id="hjnhnVCfy0rVlfzwF7n2-62" value="id" style="shape=partialRectangle;overflow=hidden;connectable=0;fillColor=none;top=0;left=0;bottom=0;right=0;align=left;spacingLeft=6;fontStyle=5;strokeColor=default;" vertex="1" parent="hjnhnVCfy0rVlfzwF7n2-60">
          <mxGeometry x="30" width="100" height="30" as="geometry">
            <mxRectangle width="100" height="30" as="alternateBounds" />
          </mxGeometry>
        </mxCell>
        <mxCell id="hjnhnVCfy0rVlfzwF7n2-63" value="INTEGER PRIMARY KEY IDENTITY" style="shape=partialRectangle;overflow=hidden;connectable=0;fillColor=none;top=0;left=0;bottom=0;right=0;align=left;spacingLeft=6;fontStyle=5;strokeColor=default;" vertex="1" parent="hjnhnVCfy0rVlfzwF7n2-60">
          <mxGeometry x="130" width="230" height="30" as="geometry">
            <mxRectangle width="230" height="30" as="alternateBounds" />
          </mxGeometry>
        </mxCell>
        <mxCell id="hjnhnVCfy0rVlfzwF7n2-76" value="" style="shape=partialRectangle;collapsible=0;dropTarget=0;pointerEvents=0;fillColor=none;points=[[0,0.5],[1,0.5]];portConstraint=eastwest;top=0;left=0;right=0;bottom=0;strokeColor=default;" vertex="1" parent="hjnhnVCfy0rVlfzwF7n2-59">
          <mxGeometry y="60" width="360" height="30" as="geometry" />
        </mxCell>
        <mxCell id="hjnhnVCfy0rVlfzwF7n2-77" value="" style="shape=partialRectangle;overflow=hidden;connectable=0;fillColor=none;top=0;left=0;bottom=0;right=0;strokeColor=default;" vertex="1" parent="hjnhnVCfy0rVlfzwF7n2-76">
          <mxGeometry width="30" height="30" as="geometry">
            <mxRectangle width="30" height="30" as="alternateBounds" />
          </mxGeometry>
        </mxCell>
        <mxCell id="hjnhnVCfy0rVlfzwF7n2-78" value="tipo_consulta" style="shape=partialRectangle;overflow=hidden;connectable=0;fillColor=none;top=0;left=0;bottom=0;right=0;align=left;spacingLeft=6;strokeColor=default;" vertex="1" parent="hjnhnVCfy0rVlfzwF7n2-76">
          <mxGeometry x="30" width="100" height="30" as="geometry">
            <mxRectangle width="100" height="30" as="alternateBounds" />
          </mxGeometry>
        </mxCell>
        <mxCell id="hjnhnVCfy0rVlfzwF7n2-79" value="VARCHAR(50) NOT NULL" style="shape=partialRectangle;overflow=hidden;connectable=0;fillColor=none;top=0;left=0;bottom=0;right=0;align=left;spacingLeft=6;strokeColor=default;" vertex="1" parent="hjnhnVCfy0rVlfzwF7n2-76">
          <mxGeometry x="130" width="230" height="30" as="geometry">
            <mxRectangle width="230" height="30" as="alternateBounds" />
          </mxGeometry>
        </mxCell>
        <mxCell id="hjnhnVCfy0rVlfzwF7n2-68" value="" style="shape=partialRectangle;collapsible=0;dropTarget=0;pointerEvents=0;fillColor=none;points=[[0,0.5],[1,0.5]];portConstraint=eastwest;top=0;left=0;right=0;bottom=0;strokeColor=default;" vertex="1" parent="hjnhnVCfy0rVlfzwF7n2-59">
          <mxGeometry y="90" width="360" height="30" as="geometry" />
        </mxCell>
        <mxCell id="hjnhnVCfy0rVlfzwF7n2-69" value="" style="shape=partialRectangle;overflow=hidden;connectable=0;fillColor=none;top=0;left=0;bottom=0;right=0;strokeColor=default;" vertex="1" parent="hjnhnVCfy0rVlfzwF7n2-68">
          <mxGeometry width="30" height="30" as="geometry">
            <mxRectangle width="30" height="30" as="alternateBounds" />
          </mxGeometry>
        </mxCell>
        <mxCell id="hjnhnVCfy0rVlfzwF7n2-70" value="descricao" style="shape=partialRectangle;overflow=hidden;connectable=0;fillColor=none;top=0;left=0;bottom=0;right=0;align=left;spacingLeft=6;strokeColor=default;" vertex="1" parent="hjnhnVCfy0rVlfzwF7n2-68">
          <mxGeometry x="30" width="100" height="30" as="geometry">
            <mxRectangle width="100" height="30" as="alternateBounds" />
          </mxGeometry>
        </mxCell>
        <mxCell id="hjnhnVCfy0rVlfzwF7n2-71" value="TEXT" style="shape=partialRectangle;overflow=hidden;connectable=0;fillColor=none;top=0;left=0;bottom=0;right=0;align=left;spacingLeft=6;strokeColor=default;" vertex="1" parent="hjnhnVCfy0rVlfzwF7n2-68">
          <mxGeometry x="130" width="230" height="30" as="geometry">
            <mxRectangle width="230" height="30" as="alternateBounds" />
          </mxGeometry>
        </mxCell>
        <mxCell id="hjnhnVCfy0rVlfzwF7n2-64" value="" style="shape=partialRectangle;collapsible=0;dropTarget=0;pointerEvents=0;fillColor=none;points=[[0,0.5],[1,0.5]];portConstraint=eastwest;top=0;left=0;right=0;bottom=0;strokeColor=default;" vertex="1" parent="hjnhnVCfy0rVlfzwF7n2-59">
          <mxGeometry y="120" width="360" height="30" as="geometry" />
        </mxCell>
        <mxCell id="hjnhnVCfy0rVlfzwF7n2-65" value="" style="shape=partialRectangle;overflow=hidden;connectable=0;fillColor=none;top=0;left=0;bottom=0;right=0;strokeColor=default;" vertex="1" parent="hjnhnVCfy0rVlfzwF7n2-64">
          <mxGeometry width="30" height="30" as="geometry">
            <mxRectangle width="30" height="30" as="alternateBounds" />
          </mxGeometry>
        </mxCell>
        <mxCell id="hjnhnVCfy0rVlfzwF7n2-66" value="data" style="shape=partialRectangle;overflow=hidden;connectable=0;fillColor=none;top=0;left=0;bottom=0;right=0;align=left;spacingLeft=6;strokeColor=default;" vertex="1" parent="hjnhnVCfy0rVlfzwF7n2-64">
          <mxGeometry x="30" width="100" height="30" as="geometry">
            <mxRectangle width="100" height="30" as="alternateBounds" />
          </mxGeometry>
        </mxCell>
        <mxCell id="hjnhnVCfy0rVlfzwF7n2-67" value="DATETIME NOT NULL" style="shape=partialRectangle;overflow=hidden;connectable=0;fillColor=none;top=0;left=0;bottom=0;right=0;align=left;spacingLeft=6;strokeColor=default;" vertex="1" parent="hjnhnVCfy0rVlfzwF7n2-64">
          <mxGeometry x="130" width="230" height="30" as="geometry">
            <mxRectangle width="230" height="30" as="alternateBounds" />
          </mxGeometry>
        </mxCell>
        <mxCell id="hjnhnVCfy0rVlfzwF7n2-84" value="" style="shape=partialRectangle;collapsible=0;dropTarget=0;pointerEvents=0;fillColor=none;points=[[0,0.5],[1,0.5]];portConstraint=eastwest;top=0;left=0;right=0;bottom=0;strokeColor=default;" vertex="1" parent="hjnhnVCfy0rVlfzwF7n2-59">
          <mxGeometry y="150" width="360" height="30" as="geometry" />
        </mxCell>
        <mxCell id="hjnhnVCfy0rVlfzwF7n2-85" value="FK" style="shape=partialRectangle;overflow=hidden;connectable=0;fillColor=none;top=0;left=0;bottom=0;right=0;strokeColor=default;" vertex="1" parent="hjnhnVCfy0rVlfzwF7n2-84">
          <mxGeometry width="30" height="30" as="geometry">
            <mxRectangle width="30" height="30" as="alternateBounds" />
          </mxGeometry>
        </mxCell>
        <mxCell id="hjnhnVCfy0rVlfzwF7n2-86" value="medico_id" style="shape=partialRectangle;overflow=hidden;connectable=0;fillColor=none;top=0;left=0;bottom=0;right=0;align=left;spacingLeft=6;strokeColor=default;" vertex="1" parent="hjnhnVCfy0rVlfzwF7n2-84">
          <mxGeometry x="30" width="100" height="30" as="geometry">
            <mxRectangle width="100" height="30" as="alternateBounds" />
          </mxGeometry>
        </mxCell>
        <mxCell id="hjnhnVCfy0rVlfzwF7n2-87" value="INTEGER NOT NULL" style="shape=partialRectangle;overflow=hidden;connectable=0;fillColor=none;top=0;left=0;bottom=0;right=0;align=left;spacingLeft=6;strokeColor=default;" vertex="1" parent="hjnhnVCfy0rVlfzwF7n2-84">
          <mxGeometry x="130" width="230" height="30" as="geometry">
            <mxRectangle width="230" height="30" as="alternateBounds" />
          </mxGeometry>
        </mxCell>
        <mxCell id="hjnhnVCfy0rVlfzwF7n2-80" value="" style="shape=partialRectangle;collapsible=0;dropTarget=0;pointerEvents=0;fillColor=none;points=[[0,0.5],[1,0.5]];portConstraint=eastwest;top=0;left=0;right=0;bottom=0;strokeColor=default;" vertex="1" parent="hjnhnVCfy0rVlfzwF7n2-59">
          <mxGeometry y="180" width="360" height="30" as="geometry" />
        </mxCell>
        <mxCell id="hjnhnVCfy0rVlfzwF7n2-81" value="FK" style="shape=partialRectangle;overflow=hidden;connectable=0;fillColor=none;top=0;left=0;bottom=0;right=0;strokeColor=default;" vertex="1" parent="hjnhnVCfy0rVlfzwF7n2-80">
          <mxGeometry width="30" height="30" as="geometry">
            <mxRectangle width="30" height="30" as="alternateBounds" />
          </mxGeometry>
        </mxCell>
        <mxCell id="hjnhnVCfy0rVlfzwF7n2-82" value="paciente_id" style="shape=partialRectangle;overflow=hidden;connectable=0;fillColor=none;top=0;left=0;bottom=0;right=0;align=left;spacingLeft=6;strokeColor=default;" vertex="1" parent="hjnhnVCfy0rVlfzwF7n2-80">
          <mxGeometry x="30" width="100" height="30" as="geometry">
            <mxRectangle width="100" height="30" as="alternateBounds" />
          </mxGeometry>
        </mxCell>
        <mxCell id="hjnhnVCfy0rVlfzwF7n2-83" value="INTEGER NOT NULL" style="shape=partialRectangle;overflow=hidden;connectable=0;fillColor=none;top=0;left=0;bottom=0;right=0;align=left;spacingLeft=6;strokeColor=default;" vertex="1" parent="hjnhnVCfy0rVlfzwF7n2-80">
          <mxGeometry x="130" width="230" height="30" as="geometry">
            <mxRectangle width="230" height="30" as="alternateBounds" />
          </mxGeometry>
        </mxCell>
        <mxCell id="hjnhnVCfy0rVlfzwF7n2-88" style="edgeStyle=orthogonalEdgeStyle;rounded=0;orthogonalLoop=1;jettySize=auto;html=1;endArrow=ERone;endFill=0;startArrow=ERzeroToMany;startFill=0;strokeColor=default;" edge="1" parent="hjnhnVCfy0rVlfzwF7n2-1" source="hjnhnVCfy0rVlfzwF7n2-80" target="hjnhnVCfy0rVlfzwF7n2-7">
          <mxGeometry relative="1" as="geometry">
            <Array as="points">
              <mxPoint x="380" y="-125" />
              <mxPoint x="380" y="-135" />
            </Array>
          </mxGeometry>
        </mxCell>
        <mxCell id="hjnhnVCfy0rVlfzwF7n2-111" value="Medico" style="shape=table;startSize=30;container=1;collapsible=1;childLayout=tableLayout;fixedRows=1;rowLines=0;fontStyle=1;align=center;resizeLast=1;gradientColor=#CCE5FF;swimlaneFillColor=default;gradientDirection=south;rounded=1;shadow=1;strokeColor=default;" vertex="1" parent="hjnhnVCfy0rVlfzwF7n2-1">
          <mxGeometry x="-3" y="-340" width="360" height="120" as="geometry" />
        </mxCell>
        <mxCell id="hjnhnVCfy0rVlfzwF7n2-112" value="" style="shape=partialRectangle;collapsible=0;dropTarget=0;pointerEvents=0;fillColor=none;points=[[0,0.5],[1,0.5]];portConstraint=eastwest;top=0;left=0;right=0;bottom=1;strokeColor=default;" vertex="1" parent="hjnhnVCfy0rVlfzwF7n2-111">
          <mxGeometry y="30" width="360" height="30" as="geometry" />
        </mxCell>
        <mxCell id="hjnhnVCfy0rVlfzwF7n2-113" value="PK" style="shape=partialRectangle;overflow=hidden;connectable=0;fillColor=none;top=0;left=0;bottom=0;right=0;fontStyle=1;strokeColor=default;" vertex="1" parent="hjnhnVCfy0rVlfzwF7n2-112">
          <mxGeometry width="30" height="30" as="geometry">
            <mxRectangle width="30" height="30" as="alternateBounds" />
          </mxGeometry>
        </mxCell>
        <mxCell id="hjnhnVCfy0rVlfzwF7n2-114" value="id" style="shape=partialRectangle;overflow=hidden;connectable=0;fillColor=none;top=0;left=0;bottom=0;right=0;align=left;spacingLeft=6;fontStyle=5;strokeColor=default;" vertex="1" parent="hjnhnVCfy0rVlfzwF7n2-112">
          <mxGeometry x="30" width="100" height="30" as="geometry">
            <mxRectangle width="100" height="30" as="alternateBounds" />
          </mxGeometry>
        </mxCell>
        <mxCell id="hjnhnVCfy0rVlfzwF7n2-115" value="INTEGER PRIMARY KEY IDENTITY" style="shape=partialRectangle;overflow=hidden;connectable=0;fillColor=none;top=0;left=0;bottom=0;right=0;align=left;spacingLeft=6;fontStyle=5;strokeColor=default;" vertex="1" parent="hjnhnVCfy0rVlfzwF7n2-112">
          <mxGeometry x="130" width="230" height="30" as="geometry">
            <mxRectangle width="230" height="30" as="alternateBounds" />
          </mxGeometry>
        </mxCell>
        <mxCell id="hjnhnVCfy0rVlfzwF7n2-120" value="" style="shape=partialRectangle;collapsible=0;dropTarget=0;pointerEvents=0;fillColor=none;points=[[0,0.5],[1,0.5]];portConstraint=eastwest;top=0;left=0;right=0;bottom=0;strokeColor=default;" vertex="1" parent="hjnhnVCfy0rVlfzwF7n2-111">
          <mxGeometry y="60" width="360" height="30" as="geometry" />
        </mxCell>
        <mxCell id="hjnhnVCfy0rVlfzwF7n2-121" value="" style="shape=partialRectangle;overflow=hidden;connectable=0;fillColor=none;top=0;left=0;bottom=0;right=0;strokeColor=default;" vertex="1" parent="hjnhnVCfy0rVlfzwF7n2-120">
          <mxGeometry width="30" height="30" as="geometry">
            <mxRectangle width="30" height="30" as="alternateBounds" />
          </mxGeometry>
        </mxCell>
        <mxCell id="hjnhnVCfy0rVlfzwF7n2-122" value="especializacao" style="shape=partialRectangle;overflow=hidden;connectable=0;fillColor=none;top=0;left=0;bottom=0;right=0;align=left;spacingLeft=6;strokeColor=default;" vertex="1" parent="hjnhnVCfy0rVlfzwF7n2-120">
          <mxGeometry x="30" width="100" height="30" as="geometry">
            <mxRectangle width="100" height="30" as="alternateBounds" />
          </mxGeometry>
        </mxCell>
        <mxCell id="hjnhnVCfy0rVlfzwF7n2-123" value="VARCHAR(50) NOT NULL" style="shape=partialRectangle;overflow=hidden;connectable=0;fillColor=none;top=0;left=0;bottom=0;right=0;align=left;spacingLeft=6;strokeColor=default;" vertex="1" parent="hjnhnVCfy0rVlfzwF7n2-120">
          <mxGeometry x="130" width="230" height="30" as="geometry">
            <mxRectangle width="230" height="30" as="alternateBounds" />
          </mxGeometry>
        </mxCell>
        <mxCell id="hjnhnVCfy0rVlfzwF7n2-116" value="" style="shape=partialRectangle;collapsible=0;dropTarget=0;pointerEvents=0;fillColor=none;points=[[0,0.5],[1,0.5]];portConstraint=eastwest;top=0;left=0;right=0;bottom=0;strokeColor=default;" vertex="1" parent="hjnhnVCfy0rVlfzwF7n2-111">
          <mxGeometry y="90" width="360" height="30" as="geometry" />
        </mxCell>
        <mxCell id="hjnhnVCfy0rVlfzwF7n2-117" value="FK" style="shape=partialRectangle;overflow=hidden;connectable=0;fillColor=none;top=0;left=0;bottom=0;right=0;strokeColor=default;" vertex="1" parent="hjnhnVCfy0rVlfzwF7n2-116">
          <mxGeometry width="30" height="30" as="geometry">
            <mxRectangle width="30" height="30" as="alternateBounds" />
          </mxGeometry>
        </mxCell>
        <mxCell id="hjnhnVCfy0rVlfzwF7n2-118" value="pessoa" style="shape=partialRectangle;overflow=hidden;connectable=0;fillColor=none;top=0;left=0;bottom=0;right=0;align=left;spacingLeft=6;strokeColor=default;" vertex="1" parent="hjnhnVCfy0rVlfzwF7n2-116">
          <mxGeometry x="30" width="100" height="30" as="geometry">
            <mxRectangle width="100" height="30" as="alternateBounds" />
          </mxGeometry>
        </mxCell>
        <mxCell id="hjnhnVCfy0rVlfzwF7n2-119" value="INTEGER NOT NULL" style="shape=partialRectangle;overflow=hidden;connectable=0;fillColor=none;top=0;left=0;bottom=0;right=0;align=left;spacingLeft=6;strokeColor=default;" vertex="1" parent="hjnhnVCfy0rVlfzwF7n2-116">
          <mxGeometry x="130" width="230" height="30" as="geometry">
            <mxRectangle width="230" height="30" as="alternateBounds" />
          </mxGeometry>
        </mxCell>
        <mxCell id="hjnhnVCfy0rVlfzwF7n2-134" style="edgeStyle=orthogonalEdgeStyle;rounded=0;orthogonalLoop=1;jettySize=auto;html=1;endArrow=ERone;endFill=0;startArrow=ERzeroToMany;startFill=0;strokeColor=default;" edge="1" parent="hjnhnVCfy0rVlfzwF7n2-1" source="hjnhnVCfy0rVlfzwF7n2-84" target="hjnhnVCfy0rVlfzwF7n2-112">
          <mxGeometry relative="1" as="geometry">
            <Array as="points">
              <mxPoint x="380" y="-155" />
              <mxPoint x="380" y="-295" />
            </Array>
          </mxGeometry>
        </mxCell>
        <mxCell id="hjnhnVCfy0rVlfzwF7n2-174" value="Pessoa" style="shape=table;startSize=30;container=1;collapsible=1;childLayout=tableLayout;fixedRows=1;rowLines=0;fontStyle=1;align=center;resizeLast=1;gradientColor=#CCE5FF;swimlaneFillColor=default;gradientDirection=south;rounded=1;shadow=1;strokeColor=default;" vertex="1" parent="hjnhnVCfy0rVlfzwF7n2-1">
          <mxGeometry x="-3" y="-680" width="360" height="300" as="geometry" />
        </mxCell>
        <mxCell id="hjnhnVCfy0rVlfzwF7n2-175" value="" style="shape=partialRectangle;collapsible=0;dropTarget=0;pointerEvents=0;fillColor=none;points=[[0,0.5],[1,0.5]];portConstraint=eastwest;top=0;left=0;right=0;bottom=1;strokeColor=default;" vertex="1" parent="hjnhnVCfy0rVlfzwF7n2-174">
          <mxGeometry y="30" width="360" height="30" as="geometry" />
        </mxCell>
        <mxCell id="hjnhnVCfy0rVlfzwF7n2-176" value="PK" style="shape=partialRectangle;overflow=hidden;connectable=0;fillColor=none;top=0;left=0;bottom=0;right=0;fontStyle=1;strokeColor=default;" vertex="1" parent="hjnhnVCfy0rVlfzwF7n2-175">
          <mxGeometry width="30" height="30" as="geometry">
            <mxRectangle width="30" height="30" as="alternateBounds" />
          </mxGeometry>
        </mxCell>
        <mxCell id="hjnhnVCfy0rVlfzwF7n2-177" value="id" style="shape=partialRectangle;overflow=hidden;connectable=0;fillColor=none;top=0;left=0;bottom=0;right=0;align=left;spacingLeft=6;fontStyle=5;strokeColor=default;" vertex="1" parent="hjnhnVCfy0rVlfzwF7n2-175">
          <mxGeometry x="30" width="100" height="30" as="geometry">
            <mxRectangle width="100" height="30" as="alternateBounds" />
          </mxGeometry>
        </mxCell>
        <mxCell id="hjnhnVCfy0rVlfzwF7n2-178" value="INTEGER PRIMARY KEY IDENTITY" style="shape=partialRectangle;overflow=hidden;connectable=0;fillColor=none;top=0;left=0;bottom=0;right=0;align=left;spacingLeft=6;fontStyle=5;strokeColor=default;" vertex="1" parent="hjnhnVCfy0rVlfzwF7n2-175">
          <mxGeometry x="130" width="230" height="30" as="geometry">
            <mxRectangle width="230" height="30" as="alternateBounds" />
          </mxGeometry>
        </mxCell>
        <mxCell id="hjnhnVCfy0rVlfzwF7n2-179" value="" style="shape=partialRectangle;collapsible=0;dropTarget=0;pointerEvents=0;fillColor=none;points=[[0,0.5],[1,0.5]];portConstraint=eastwest;top=0;left=0;right=0;bottom=0;strokeColor=default;" vertex="1" parent="hjnhnVCfy0rVlfzwF7n2-174">
          <mxGeometry y="60" width="360" height="30" as="geometry" />
        </mxCell>
        <mxCell id="hjnhnVCfy0rVlfzwF7n2-180" value="" style="shape=partialRectangle;overflow=hidden;connectable=0;fillColor=none;top=0;left=0;bottom=0;right=0;strokeColor=default;" vertex="1" parent="hjnhnVCfy0rVlfzwF7n2-179">
          <mxGeometry width="30" height="30" as="geometry">
            <mxRectangle width="30" height="30" as="alternateBounds" />
          </mxGeometry>
        </mxCell>
        <mxCell id="hjnhnVCfy0rVlfzwF7n2-181" value="nome " style="shape=partialRectangle;overflow=hidden;connectable=0;fillColor=none;top=0;left=0;bottom=0;right=0;align=left;spacingLeft=6;strokeColor=default;" vertex="1" parent="hjnhnVCfy0rVlfzwF7n2-179">
          <mxGeometry x="30" width="100" height="30" as="geometry">
            <mxRectangle width="100" height="30" as="alternateBounds" />
          </mxGeometry>
        </mxCell>
        <mxCell id="hjnhnVCfy0rVlfzwF7n2-182" value="VARCHAR(100) NOT NULL" style="shape=partialRectangle;overflow=hidden;connectable=0;fillColor=none;top=0;left=0;bottom=0;right=0;align=left;spacingLeft=6;strokeColor=default;" vertex="1" parent="hjnhnVCfy0rVlfzwF7n2-179">
          <mxGeometry x="130" width="230" height="30" as="geometry">
            <mxRectangle width="230" height="30" as="alternateBounds" />
          </mxGeometry>
        </mxCell>
        <mxCell id="hjnhnVCfy0rVlfzwF7n2-183" value="" style="shape=partialRectangle;collapsible=0;dropTarget=0;pointerEvents=0;fillColor=none;points=[[0,0.5],[1,0.5]];portConstraint=eastwest;top=0;left=0;right=0;bottom=0;strokeColor=default;" vertex="1" parent="hjnhnVCfy0rVlfzwF7n2-174">
          <mxGeometry y="90" width="360" height="30" as="geometry" />
        </mxCell>
        <mxCell id="hjnhnVCfy0rVlfzwF7n2-184" value="" style="shape=partialRectangle;overflow=hidden;connectable=0;fillColor=none;top=0;left=0;bottom=0;right=0;strokeColor=default;" vertex="1" parent="hjnhnVCfy0rVlfzwF7n2-183">
          <mxGeometry width="30" height="30" as="geometry">
            <mxRectangle width="30" height="30" as="alternateBounds" />
          </mxGeometry>
        </mxCell>
        <mxCell id="hjnhnVCfy0rVlfzwF7n2-185" value="cpf" style="shape=partialRectangle;overflow=hidden;connectable=0;fillColor=none;top=0;left=0;bottom=0;right=0;align=left;spacingLeft=6;strokeColor=default;" vertex="1" parent="hjnhnVCfy0rVlfzwF7n2-183">
          <mxGeometry x="30" width="100" height="30" as="geometry">
            <mxRectangle width="100" height="30" as="alternateBounds" />
          </mxGeometry>
        </mxCell>
        <mxCell id="hjnhnVCfy0rVlfzwF7n2-186" value="VARCHAR(11) NOT NULL" style="shape=partialRectangle;overflow=hidden;connectable=0;fillColor=none;top=0;left=0;bottom=0;right=0;align=left;spacingLeft=6;strokeColor=default;" vertex="1" parent="hjnhnVCfy0rVlfzwF7n2-183">
          <mxGeometry x="130" width="230" height="30" as="geometry">
            <mxRectangle width="230" height="30" as="alternateBounds" />
          </mxGeometry>
        </mxCell>
        <mxCell id="hjnhnVCfy0rVlfzwF7n2-187" value="" style="shape=partialRectangle;collapsible=0;dropTarget=0;pointerEvents=0;fillColor=none;points=[[0,0.5],[1,0.5]];portConstraint=eastwest;top=0;left=0;right=0;bottom=0;strokeColor=default;" vertex="1" parent="hjnhnVCfy0rVlfzwF7n2-174">
          <mxGeometry y="120" width="360" height="30" as="geometry" />
        </mxCell>
        <mxCell id="hjnhnVCfy0rVlfzwF7n2-188" value="" style="shape=partialRectangle;overflow=hidden;connectable=0;fillColor=none;top=0;left=0;bottom=0;right=0;strokeColor=default;" vertex="1" parent="hjnhnVCfy0rVlfzwF7n2-187">
          <mxGeometry width="30" height="30" as="geometry">
            <mxRectangle width="30" height="30" as="alternateBounds" />
          </mxGeometry>
        </mxCell>
        <mxCell id="hjnhnVCfy0rVlfzwF7n2-189" value="data_nascimento" style="shape=partialRectangle;overflow=hidden;connectable=0;fillColor=none;top=0;left=0;bottom=0;right=0;align=left;spacingLeft=6;strokeColor=default;" vertex="1" parent="hjnhnVCfy0rVlfzwF7n2-187">
          <mxGeometry x="30" width="100" height="30" as="geometry">
            <mxRectangle width="100" height="30" as="alternateBounds" />
          </mxGeometry>
        </mxCell>
        <mxCell id="hjnhnVCfy0rVlfzwF7n2-190" value="DATEONLY NOT NULL" style="shape=partialRectangle;overflow=hidden;connectable=0;fillColor=none;top=0;left=0;bottom=0;right=0;align=left;spacingLeft=6;strokeColor=default;" vertex="1" parent="hjnhnVCfy0rVlfzwF7n2-187">
          <mxGeometry x="130" width="230" height="30" as="geometry">
            <mxRectangle width="230" height="30" as="alternateBounds" />
          </mxGeometry>
        </mxCell>
        <mxCell id="hjnhnVCfy0rVlfzwF7n2-191" value="" style="shape=partialRectangle;collapsible=0;dropTarget=0;pointerEvents=0;fillColor=none;points=[[0,0.5],[1,0.5]];portConstraint=eastwest;top=0;left=0;right=0;bottom=0;strokeColor=default;" vertex="1" parent="hjnhnVCfy0rVlfzwF7n2-174">
          <mxGeometry y="150" width="360" height="30" as="geometry" />
        </mxCell>
        <mxCell id="hjnhnVCfy0rVlfzwF7n2-192" value="" style="shape=partialRectangle;overflow=hidden;connectable=0;fillColor=none;top=0;left=0;bottom=0;right=0;strokeColor=default;" vertex="1" parent="hjnhnVCfy0rVlfzwF7n2-191">
          <mxGeometry width="30" height="30" as="geometry">
            <mxRectangle width="30" height="30" as="alternateBounds" />
          </mxGeometry>
        </mxCell>
        <mxCell id="hjnhnVCfy0rVlfzwF7n2-193" value="email" style="shape=partialRectangle;overflow=hidden;connectable=0;fillColor=none;top=0;left=0;bottom=0;right=0;align=left;spacingLeft=6;strokeColor=default;" vertex="1" parent="hjnhnVCfy0rVlfzwF7n2-191">
          <mxGeometry x="30" width="100" height="30" as="geometry">
            <mxRectangle width="100" height="30" as="alternateBounds" />
          </mxGeometry>
        </mxCell>
        <mxCell id="hjnhnVCfy0rVlfzwF7n2-194" value="VARCHAR(100) NOT NULL" style="shape=partialRectangle;overflow=hidden;connectable=0;fillColor=none;top=0;left=0;bottom=0;right=0;align=left;spacingLeft=6;strokeColor=default;" vertex="1" parent="hjnhnVCfy0rVlfzwF7n2-191">
          <mxGeometry x="130" width="230" height="30" as="geometry">
            <mxRectangle width="230" height="30" as="alternateBounds" />
          </mxGeometry>
        </mxCell>
        <mxCell id="hjnhnVCfy0rVlfzwF7n2-195" value="" style="shape=partialRectangle;collapsible=0;dropTarget=0;pointerEvents=0;fillColor=none;points=[[0,0.5],[1,0.5]];portConstraint=eastwest;top=0;left=0;right=0;bottom=0;strokeColor=default;" vertex="1" parent="hjnhnVCfy0rVlfzwF7n2-174">
          <mxGeometry y="180" width="360" height="30" as="geometry" />
        </mxCell>
        <mxCell id="hjnhnVCfy0rVlfzwF7n2-196" value="" style="shape=partialRectangle;overflow=hidden;connectable=0;fillColor=none;top=0;left=0;bottom=0;right=0;strokeColor=default;" vertex="1" parent="hjnhnVCfy0rVlfzwF7n2-195">
          <mxGeometry width="30" height="30" as="geometry">
            <mxRectangle width="30" height="30" as="alternateBounds" />
          </mxGeometry>
        </mxCell>
        <mxCell id="hjnhnVCfy0rVlfzwF7n2-197" value="tipo_sanguineo" style="shape=partialRectangle;overflow=hidden;connectable=0;fillColor=none;top=0;left=0;bottom=0;right=0;align=left;spacingLeft=6;strokeColor=default;" vertex="1" parent="hjnhnVCfy0rVlfzwF7n2-195">
          <mxGeometry x="30" width="100" height="30" as="geometry">
            <mxRectangle width="100" height="30" as="alternateBounds" />
          </mxGeometry>
        </mxCell>
        <mxCell id="hjnhnVCfy0rVlfzwF7n2-198" value="VARCHAR(3) " style="shape=partialRectangle;overflow=hidden;connectable=0;fillColor=none;top=0;left=0;bottom=0;right=0;align=left;spacingLeft=6;strokeColor=default;" vertex="1" parent="hjnhnVCfy0rVlfzwF7n2-195">
          <mxGeometry x="130" width="230" height="30" as="geometry">
            <mxRectangle width="230" height="30" as="alternateBounds" />
          </mxGeometry>
        </mxCell>
        <mxCell id="hjnhnVCfy0rVlfzwF7n2-199" value="" style="shape=partialRectangle;collapsible=0;dropTarget=0;pointerEvents=0;fillColor=none;points=[[0,0.5],[1,0.5]];portConstraint=eastwest;top=0;left=0;right=0;bottom=0;strokeColor=default;" vertex="1" parent="hjnhnVCfy0rVlfzwF7n2-174">
          <mxGeometry y="210" width="360" height="30" as="geometry" />
        </mxCell>
        <mxCell id="hjnhnVCfy0rVlfzwF7n2-200" value="" style="shape=partialRectangle;overflow=hidden;connectable=0;fillColor=none;top=0;left=0;bottom=0;right=0;strokeColor=default;" vertex="1" parent="hjnhnVCfy0rVlfzwF7n2-199">
          <mxGeometry width="30" height="30" as="geometry">
            <mxRectangle width="30" height="30" as="alternateBounds" />
          </mxGeometry>
        </mxCell>
        <mxCell id="hjnhnVCfy0rVlfzwF7n2-201" value="genero" style="shape=partialRectangle;overflow=hidden;connectable=0;fillColor=none;top=0;left=0;bottom=0;right=0;align=left;spacingLeft=6;strokeColor=default;" vertex="1" parent="hjnhnVCfy0rVlfzwF7n2-199">
          <mxGeometry x="30" width="100" height="30" as="geometry">
            <mxRectangle width="100" height="30" as="alternateBounds" />
          </mxGeometry>
        </mxCell>
        <mxCell id="hjnhnVCfy0rVlfzwF7n2-202" value="VARCHAR(50) NOT NULL" style="shape=partialRectangle;overflow=hidden;connectable=0;fillColor=none;top=0;left=0;bottom=0;right=0;align=left;spacingLeft=6;strokeColor=default;" vertex="1" parent="hjnhnVCfy0rVlfzwF7n2-199">
          <mxGeometry x="130" width="230" height="30" as="geometry">
            <mxRectangle width="230" height="30" as="alternateBounds" />
          </mxGeometry>
        </mxCell>
        <mxCell id="hjnhnVCfy0rVlfzwF7n2-203" value="" style="shape=partialRectangle;collapsible=0;dropTarget=0;pointerEvents=0;fillColor=none;points=[[0,0.5],[1,0.5]];portConstraint=eastwest;top=0;left=0;right=0;bottom=0;strokeColor=default;" vertex="1" parent="hjnhnVCfy0rVlfzwF7n2-174">
          <mxGeometry y="240" width="360" height="30" as="geometry" />
        </mxCell>
        <mxCell id="hjnhnVCfy0rVlfzwF7n2-204" value="" style="shape=partialRectangle;overflow=hidden;connectable=0;fillColor=none;top=0;left=0;bottom=0;right=0;strokeColor=default;" vertex="1" parent="hjnhnVCfy0rVlfzwF7n2-203">
          <mxGeometry width="30" height="30" as="geometry">
            <mxRectangle width="30" height="30" as="alternateBounds" />
          </mxGeometry>
        </mxCell>
        <mxCell id="hjnhnVCfy0rVlfzwF7n2-205" value="endereco" style="shape=partialRectangle;overflow=hidden;connectable=0;fillColor=none;top=0;left=0;bottom=0;right=0;align=left;spacingLeft=6;strokeColor=default;" vertex="1" parent="hjnhnVCfy0rVlfzwF7n2-203">
          <mxGeometry x="30" width="100" height="30" as="geometry">
            <mxRectangle width="100" height="30" as="alternateBounds" />
          </mxGeometry>
        </mxCell>
        <mxCell id="hjnhnVCfy0rVlfzwF7n2-206" value="VARCHA(100) NOT NULL" style="shape=partialRectangle;overflow=hidden;connectable=0;fillColor=none;top=0;left=0;bottom=0;right=0;align=left;spacingLeft=6;strokeColor=default;" vertex="1" parent="hjnhnVCfy0rVlfzwF7n2-203">
          <mxGeometry x="130" width="230" height="30" as="geometry">
            <mxRectangle width="230" height="30" as="alternateBounds" />
          </mxGeometry>
        </mxCell>
        <mxCell id="nLhL3mc4wSbDDh_Xzcie-0" value="" style="shape=partialRectangle;collapsible=0;dropTarget=0;pointerEvents=0;fillColor=none;points=[[0,0.5],[1,0.5]];portConstraint=eastwest;top=0;left=0;right=0;bottom=0;strokeColor=default;" vertex="1" parent="hjnhnVCfy0rVlfzwF7n2-174">
          <mxGeometry y="270" width="360" height="30" as="geometry" />
        </mxCell>
        <mxCell id="nLhL3mc4wSbDDh_Xzcie-1" value="" style="shape=partialRectangle;overflow=hidden;connectable=0;fillColor=none;top=0;left=0;bottom=0;right=0;strokeColor=default;" vertex="1" parent="nLhL3mc4wSbDDh_Xzcie-0">
          <mxGeometry width="30" height="30" as="geometry">
            <mxRectangle width="30" height="30" as="alternateBounds" />
          </mxGeometry>
        </mxCell>
        <mxCell id="nLhL3mc4wSbDDh_Xzcie-2" value="telefone" style="shape=partialRectangle;overflow=hidden;connectable=0;fillColor=none;top=0;left=0;bottom=0;right=0;align=left;spacingLeft=6;strokeColor=default;" vertex="1" parent="nLhL3mc4wSbDDh_Xzcie-0">
          <mxGeometry x="30" width="100" height="30" as="geometry">
            <mxRectangle width="100" height="30" as="alternateBounds" />
          </mxGeometry>
        </mxCell>
        <mxCell id="nLhL3mc4wSbDDh_Xzcie-3" value="VARCHA(11) NOT NULL" style="shape=partialRectangle;overflow=hidden;connectable=0;fillColor=none;top=0;left=0;bottom=0;right=0;align=left;spacingLeft=6;strokeColor=default;" vertex="1" parent="nLhL3mc4wSbDDh_Xzcie-0">
          <mxGeometry x="130" width="230" height="30" as="geometry">
            <mxRectangle width="230" height="30" as="alternateBounds" />
          </mxGeometry>
        </mxCell>
        <mxCell id="hjnhnVCfy0rVlfzwF7n2-207" style="edgeStyle=orthogonalEdgeStyle;rounded=0;orthogonalLoop=1;jettySize=auto;html=1;startArrow=ERone;startFill=0;endArrow=ERone;endFill=0;strokeColor=default;" edge="1" parent="hjnhnVCfy0rVlfzwF7n2-1" source="hjnhnVCfy0rVlfzwF7n2-15" target="hjnhnVCfy0rVlfzwF7n2-175">
          <mxGeometry relative="1" as="geometry">
            <Array as="points">
              <mxPoint x="-33" y="-75" />
              <mxPoint x="-33" y="-635" />
            </Array>
          </mxGeometry>
        </mxCell>
        <mxCell id="hjnhnVCfy0rVlfzwF7n2-208" style="edgeStyle=orthogonalEdgeStyle;rounded=0;orthogonalLoop=1;jettySize=auto;html=1;endArrow=ERone;endFill=0;startArrow=ERone;startFill=0;strokeColor=default;" edge="1" parent="hjnhnVCfy0rVlfzwF7n2-1" source="hjnhnVCfy0rVlfzwF7n2-116" target="hjnhnVCfy0rVlfzwF7n2-175">
          <mxGeometry relative="1" as="geometry">
            <Array as="points">
              <mxPoint x="-23" y="-235" />
              <mxPoint x="-23" y="-635" />
            </Array>
          </mxGeometry>
        </mxCell>
        <mxCell id="hjnhnVCfy0rVlfzwF7n2-229" value="Sintomas" style="shape=table;startSize=30;container=1;collapsible=1;childLayout=tableLayout;fixedRows=1;rowLines=0;fontStyle=1;align=center;resizeLast=1;gradientColor=#CCE5FF;swimlaneFillColor=default;gradientDirection=south;rounded=1;shadow=1;strokeColor=default;" vertex="1" parent="hjnhnVCfy0rVlfzwF7n2-1">
          <mxGeometry x="440" y="-640" width="360" height="90" as="geometry" />
        </mxCell>
        <mxCell id="hjnhnVCfy0rVlfzwF7n2-230" value="" style="shape=partialRectangle;collapsible=0;dropTarget=0;pointerEvents=0;fillColor=none;points=[[0,0.5],[1,0.5]];portConstraint=eastwest;top=0;left=0;right=0;bottom=1;strokeColor=default;" vertex="1" parent="hjnhnVCfy0rVlfzwF7n2-229">
          <mxGeometry y="30" width="360" height="30" as="geometry" />
        </mxCell>
        <mxCell id="hjnhnVCfy0rVlfzwF7n2-231" value="PK" style="shape=partialRectangle;overflow=hidden;connectable=0;fillColor=none;top=0;left=0;bottom=0;right=0;fontStyle=1;strokeColor=default;" vertex="1" parent="hjnhnVCfy0rVlfzwF7n2-230">
          <mxGeometry width="30" height="30" as="geometry">
            <mxRectangle width="30" height="30" as="alternateBounds" />
          </mxGeometry>
        </mxCell>
        <mxCell id="hjnhnVCfy0rVlfzwF7n2-232" value="id" style="shape=partialRectangle;overflow=hidden;connectable=0;fillColor=none;top=0;left=0;bottom=0;right=0;align=left;spacingLeft=6;fontStyle=5;strokeColor=default;" vertex="1" parent="hjnhnVCfy0rVlfzwF7n2-230">
          <mxGeometry x="30" width="100" height="30" as="geometry">
            <mxRectangle width="100" height="30" as="alternateBounds" />
          </mxGeometry>
        </mxCell>
        <mxCell id="hjnhnVCfy0rVlfzwF7n2-233" value="INTEGER PRIMARY KEY IDENTITY" style="shape=partialRectangle;overflow=hidden;connectable=0;fillColor=none;top=0;left=0;bottom=0;right=0;align=left;spacingLeft=6;fontStyle=5;strokeColor=default;" vertex="1" parent="hjnhnVCfy0rVlfzwF7n2-230">
          <mxGeometry x="130" width="230" height="30" as="geometry">
            <mxRectangle width="230" height="30" as="alternateBounds" />
          </mxGeometry>
        </mxCell>
        <mxCell id="hjnhnVCfy0rVlfzwF7n2-234" value="" style="shape=partialRectangle;collapsible=0;dropTarget=0;pointerEvents=0;fillColor=none;points=[[0,0.5],[1,0.5]];portConstraint=eastwest;top=0;left=0;right=0;bottom=0;strokeColor=default;" vertex="1" parent="hjnhnVCfy0rVlfzwF7n2-229">
          <mxGeometry y="60" width="360" height="30" as="geometry" />
        </mxCell>
        <mxCell id="hjnhnVCfy0rVlfzwF7n2-235" value="" style="shape=partialRectangle;overflow=hidden;connectable=0;fillColor=none;top=0;left=0;bottom=0;right=0;strokeColor=default;" vertex="1" parent="hjnhnVCfy0rVlfzwF7n2-234">
          <mxGeometry width="30" height="30" as="geometry">
            <mxRectangle width="30" height="30" as="alternateBounds" />
          </mxGeometry>
        </mxCell>
        <mxCell id="hjnhnVCfy0rVlfzwF7n2-236" value="nome" style="shape=partialRectangle;overflow=hidden;connectable=0;fillColor=none;top=0;left=0;bottom=0;right=0;align=left;spacingLeft=6;strokeColor=default;" vertex="1" parent="hjnhnVCfy0rVlfzwF7n2-234">
          <mxGeometry x="30" width="100" height="30" as="geometry">
            <mxRectangle width="100" height="30" as="alternateBounds" />
          </mxGeometry>
        </mxCell>
        <mxCell id="hjnhnVCfy0rVlfzwF7n2-237" value="VARCHAR(50) NOT NULL" style="shape=partialRectangle;overflow=hidden;connectable=0;fillColor=none;top=0;left=0;bottom=0;right=0;align=left;spacingLeft=6;strokeColor=default;" vertex="1" parent="hjnhnVCfy0rVlfzwF7n2-234">
          <mxGeometry x="130" width="230" height="30" as="geometry">
            <mxRectangle width="230" height="30" as="alternateBounds" />
          </mxGeometry>
        </mxCell>
        <mxCell id="hjnhnVCfy0rVlfzwF7n2-238" value="Consulta_Sintomas_Paciente" style="shape=table;startSize=30;container=1;collapsible=1;childLayout=tableLayout;fixedRows=1;rowLines=0;fontStyle=1;align=center;resizeLast=1;gradientColor=#CCE5FF;swimlaneFillColor=default;gradientDirection=south;rounded=1;shadow=1;strokeColor=default;" vertex="1" parent="hjnhnVCfy0rVlfzwF7n2-1">
          <mxGeometry x="440" y="-490" width="360" height="120" as="geometry" />
        </mxCell>
        <mxCell id="hjnhnVCfy0rVlfzwF7n2-239" value="" style="shape=partialRectangle;collapsible=0;dropTarget=0;pointerEvents=0;fillColor=none;points=[[0,0.5],[1,0.5]];portConstraint=eastwest;top=0;left=0;right=0;bottom=1;strokeColor=default;" vertex="1" parent="hjnhnVCfy0rVlfzwF7n2-238">
          <mxGeometry y="30" width="360" height="30" as="geometry" />
        </mxCell>
        <mxCell id="hjnhnVCfy0rVlfzwF7n2-240" value="PK" style="shape=partialRectangle;overflow=hidden;connectable=0;fillColor=none;top=0;left=0;bottom=0;right=0;fontStyle=1;strokeColor=default;" vertex="1" parent="hjnhnVCfy0rVlfzwF7n2-239">
          <mxGeometry width="30" height="30" as="geometry">
            <mxRectangle width="30" height="30" as="alternateBounds" />
          </mxGeometry>
        </mxCell>
        <mxCell id="hjnhnVCfy0rVlfzwF7n2-241" value="id" style="shape=partialRectangle;overflow=hidden;connectable=0;fillColor=none;top=0;left=0;bottom=0;right=0;align=left;spacingLeft=6;fontStyle=5;strokeColor=default;" vertex="1" parent="hjnhnVCfy0rVlfzwF7n2-239">
          <mxGeometry x="30" width="100" height="30" as="geometry">
            <mxRectangle width="100" height="30" as="alternateBounds" />
          </mxGeometry>
        </mxCell>
        <mxCell id="hjnhnVCfy0rVlfzwF7n2-242" value="INTEGER PRIMARY KEY IDENTITY" style="shape=partialRectangle;overflow=hidden;connectable=0;fillColor=none;top=0;left=0;bottom=0;right=0;align=left;spacingLeft=6;fontStyle=5;strokeColor=default;" vertex="1" parent="hjnhnVCfy0rVlfzwF7n2-239">
          <mxGeometry x="130" width="230" height="30" as="geometry">
            <mxRectangle width="230" height="30" as="alternateBounds" />
          </mxGeometry>
        </mxCell>
        <mxCell id="hjnhnVCfy0rVlfzwF7n2-247" value="" style="shape=partialRectangle;collapsible=0;dropTarget=0;pointerEvents=0;fillColor=none;points=[[0,0.5],[1,0.5]];portConstraint=eastwest;top=0;left=0;right=0;bottom=0;strokeColor=default;" vertex="1" parent="hjnhnVCfy0rVlfzwF7n2-238">
          <mxGeometry y="60" width="360" height="30" as="geometry" />
        </mxCell>
        <mxCell id="hjnhnVCfy0rVlfzwF7n2-248" value="FK" style="shape=partialRectangle;overflow=hidden;connectable=0;fillColor=none;top=0;left=0;bottom=0;right=0;strokeColor=default;" vertex="1" parent="hjnhnVCfy0rVlfzwF7n2-247">
          <mxGeometry width="30" height="30" as="geometry">
            <mxRectangle width="30" height="30" as="alternateBounds" />
          </mxGeometry>
        </mxCell>
        <mxCell id="hjnhnVCfy0rVlfzwF7n2-249" value="sintoma" style="shape=partialRectangle;overflow=hidden;connectable=0;fillColor=none;top=0;left=0;bottom=0;right=0;align=left;spacingLeft=6;strokeColor=default;" vertex="1" parent="hjnhnVCfy0rVlfzwF7n2-247">
          <mxGeometry x="30" width="100" height="30" as="geometry">
            <mxRectangle width="100" height="30" as="alternateBounds" />
          </mxGeometry>
        </mxCell>
        <mxCell id="hjnhnVCfy0rVlfzwF7n2-250" value="INTEGER NOT NULL" style="shape=partialRectangle;overflow=hidden;connectable=0;fillColor=none;top=0;left=0;bottom=0;right=0;align=left;spacingLeft=6;strokeColor=default;" vertex="1" parent="hjnhnVCfy0rVlfzwF7n2-247">
          <mxGeometry x="130" width="230" height="30" as="geometry">
            <mxRectangle width="230" height="30" as="alternateBounds" />
          </mxGeometry>
        </mxCell>
        <mxCell id="hjnhnVCfy0rVlfzwF7n2-243" value="" style="shape=partialRectangle;collapsible=0;dropTarget=0;pointerEvents=0;fillColor=none;points=[[0,0.5],[1,0.5]];portConstraint=eastwest;top=0;left=0;right=0;bottom=0;strokeColor=default;" vertex="1" parent="hjnhnVCfy0rVlfzwF7n2-238">
          <mxGeometry y="90" width="360" height="30" as="geometry" />
        </mxCell>
        <mxCell id="hjnhnVCfy0rVlfzwF7n2-244" value="FK" style="shape=partialRectangle;overflow=hidden;connectable=0;fillColor=none;top=0;left=0;bottom=0;right=0;strokeColor=default;" vertex="1" parent="hjnhnVCfy0rVlfzwF7n2-243">
          <mxGeometry width="30" height="30" as="geometry">
            <mxRectangle width="30" height="30" as="alternateBounds" />
          </mxGeometry>
        </mxCell>
        <mxCell id="hjnhnVCfy0rVlfzwF7n2-245" value="consulta" style="shape=partialRectangle;overflow=hidden;connectable=0;fillColor=none;top=0;left=0;bottom=0;right=0;align=left;spacingLeft=6;strokeColor=default;" vertex="1" parent="hjnhnVCfy0rVlfzwF7n2-243">
          <mxGeometry x="30" width="100" height="30" as="geometry">
            <mxRectangle width="100" height="30" as="alternateBounds" />
          </mxGeometry>
        </mxCell>
        <mxCell id="hjnhnVCfy0rVlfzwF7n2-246" value="INTEGER NOT NULL" style="shape=partialRectangle;overflow=hidden;connectable=0;fillColor=none;top=0;left=0;bottom=0;right=0;align=left;spacingLeft=6;strokeColor=default;" vertex="1" parent="hjnhnVCfy0rVlfzwF7n2-243">
          <mxGeometry x="130" width="230" height="30" as="geometry">
            <mxRectangle width="230" height="30" as="alternateBounds" />
          </mxGeometry>
        </mxCell>
        <mxCell id="hjnhnVCfy0rVlfzwF7n2-251" style="edgeStyle=orthogonalEdgeStyle;rounded=0;orthogonalLoop=1;jettySize=auto;html=1;startArrow=ERone;startFill=0;endArrow=ERone;endFill=0;strokeColor=default;" edge="1" parent="hjnhnVCfy0rVlfzwF7n2-1" source="hjnhnVCfy0rVlfzwF7n2-243" target="hjnhnVCfy0rVlfzwF7n2-60">
          <mxGeometry relative="1" as="geometry">
            <Array as="points">
              <mxPoint x="420" y="-385" />
              <mxPoint x="420" y="-275" />
            </Array>
          </mxGeometry>
        </mxCell>
        <mxCell id="hjnhnVCfy0rVlfzwF7n2-252" style="edgeStyle=orthogonalEdgeStyle;rounded=0;orthogonalLoop=1;jettySize=auto;html=1;endArrow=ERone;endFill=0;startArrow=ERone;startFill=0;strokeColor=default;" edge="1" parent="hjnhnVCfy0rVlfzwF7n2-1" source="hjnhnVCfy0rVlfzwF7n2-247" target="hjnhnVCfy0rVlfzwF7n2-230">
          <mxGeometry relative="1" as="geometry">
            <Array as="points">
              <mxPoint x="420" y="-415" />
              <mxPoint x="420" y="-595" />
            </Array>
          </mxGeometry>
        </mxCell>
      </root>
    </mxGraphModel>
  </diagram>
</mxfile>
